<?xml version="1.0" encoding="UTF-8"?>
<svg version="1.1" xmlns="http://www.w3.org/2000/svg" width="837" height="142">
<path d="M0 0 C11.73494253 9.88594948 16.60749194 22.8008939 18.36621094 37.83544922 C20.1054723 58.67629992 20.12812354 83.38118818 6.21484375 100.4453125 C-1.66023288 108.74858479 -11.58453775 112.72919019 -22.91796875 113.390625 C-36.12624451 113.55764219 -47.3763514 111.49438909 -57.44140625 102.37109375 C-70.19887241 88.73190207 -71.78159805 70.76079022 -71.875 52.9375 C-71.8850708 51.69516602 -71.8951416 50.45283203 -71.90551758 49.17285156 C-71.745697 32.04824674 -67.92704271 14.74206053 -55.546875 2.28515625 C-41.31682856 -10.17931035 -15.39831908 -10.83693022 0 0 Z M-31.1875 26.25 C-38.92967242 38.25036726 -36.16767449 60.17386797 -34.265625 73.5234375 C-33.24814374 76.79665551 -31.81472766 78.73557203 -29.4375 81.1875 C-26.28489816 81.7022105 -24.44766254 81.80081297 -21.6875 80.125 C-17.53997215 73.69633183 -17.80265253 65.57961225 -17.4375 58.1875 C-17.39496094 57.38570312 -17.35242188 56.58390625 -17.30859375 55.7578125 C-17.16200811 50.10937907 -17.6638 44.49425047 -18.1875 38.875 C-18.27994995 37.70868042 -18.27994995 37.70868042 -18.37426758 36.51879883 C-18.88040936 31.65973265 -19.73295381 28.67292331 -23.4375 25.1875 C-26.59010184 24.6727895 -28.42733746 24.57418703 -31.1875 26.25 Z " fill="#B2B2B2" transform="translate(323.4375,20.8125)"/>
<path d="M0 0 C40.59 0 81.18 0 123 0 C123 10.56 123 21.12 123 32 C119.94353831 32.76411542 117.99227742 33.12335155 114.96582031 33.11352539 C113.79505951 33.11341209 113.79505951 33.11341209 112.60064697 33.11329651 C111.76821472 33.10813522 110.93578247 33.10297394 110.078125 33.09765625 C109.21813904 33.0962413 108.35815308 33.09482635 107.47210693 33.09336853 C104.73136891 33.08778097 101.99071324 33.07523075 99.25 33.0625 C97.3893241 33.05748339 95.52864691 33.05292077 93.66796875 33.04882812 C89.11192208 33.03866745 84.55605299 33.01908961 80 33 C80 45.21 80 57.42 80 70 C71.1209375 70.0309375 71.1209375 70.0309375 62.0625 70.0625 C60.19215088 70.071604 58.32180176 70.08070801 56.39477539 70.09008789 C54.92073641 70.09300709 53.44669663 70.09555564 51.97265625 70.09765625 C51.20046753 70.10277222 50.42827881 70.10788818 49.63269043 70.11315918 C47.75474813 70.11346974 45.87690747 70.06233569 44 70 C43 69 43 69 42.88647461 65.58178711 C42.88663372 64.06363012 42.89232774 62.54546771 42.90234375 61.02734375 C42.9037587 60.22970108 42.90517365 59.43205841 42.90663147 58.61024475 C42.91224684 56.05262565 42.92480188 53.49509282 42.9375 50.9375 C42.94251302 49.20768355 42.94707627 47.47786574 42.95117188 45.74804688 C42.96222125 41.49866447 42.97949614 37.24934688 43 33 C41.10894531 33.01740234 41.10894531 33.01740234 39.1796875 33.03515625 C26.0818155 33.11596834 13.08172178 32.67518564 0 32 C0 21.44 0 10.88 0 0 Z " fill="#B2B2B2" transform="translate(486,39)"/>
<path d="M0 0 C1.13072182 0.00539291 1.13072182 0.00539291 2.2842865 0.01089478 C3.46956436 0.01067574 3.46956436 0.01067574 4.67878723 0.01045227 C7.30309245 0.0111516 9.92732759 0.01894489 12.55162048 0.02676392 C14.36623089 0.02862803 16.18084179 0.03005196 17.99545288 0.03105164 C22.78111653 0.03487737 27.56675003 0.04470813 32.35240173 0.05575562 C37.23195488 0.06596854 42.11151287 0.070549 46.99107361 0.07559204 C56.57246922 0.08633035 66.15383451 0.1039276 75.73521423 0.12442017 C75.73521423 9.69442017 75.73521423 19.26442017 75.73521423 29.12442017 C69.46521423 29.45442017 63.19521423 29.78442017 56.73521423 30.12442017 C60.86113893 34.59694636 60.86113893 34.59694636 65.61021423 36.87442017 C66.22638611 37.09613892 66.84255798 37.31785767 67.47740173 37.54629517 C70.5100163 38.32281239 73.6362248 38.68170739 76.73521423 39.12442017 C76.73521423 49.35442017 76.73521423 59.58442017 76.73521423 70.12442017 C60.22706894 68.94526693 47.42376835 67.28051645 35.73521423 55.12442017 C35.07521423 55.12442017 34.41521423 55.12442017 33.73521423 55.12442017 C32.58095576 56.31262742 31.42694878 57.50108012 30.27427673 58.69082642 C20.52978433 67.76754904 6.58603046 70.12442017 -6.26478577 70.12442017 C-6.26478577 60.22442017 -6.26478577 50.32442017 -6.26478577 40.12442017 C-0.26478577 38.12442017 -0.26478577 38.12442017 1.89537048 37.41348267 C6.67343791 35.74557412 11.34814418 33.89856028 13.73521423 29.12442017 C12.54283142 29.15922485 11.35044861 29.19402954 10.12193298 29.22988892 C8.55554081 29.2580277 6.98913342 29.28532776 5.42271423 29.31192017 C4.63703064 29.33705688 3.85134705 29.3621936 3.04185486 29.38809204 C2.28453064 29.39776001 1.52720642 29.40742798 0.74693298 29.41738892 C0.0504364 29.43309937 -0.64606018 29.44880981 -1.36366272 29.46499634 C-3.26478577 29.12442017 -3.26478577 29.12442017 -4.99501038 27.96401978 C-6.77774832 25.38126061 -6.6213464 23.51744224 -6.59291077 20.39785767 C-6.58775452 19.28410767 -6.58259827 18.17035767 -6.57728577 17.02285767 C-6.55666077 15.86012329 -6.53603577 14.69738892 -6.51478577 13.49942017 C-6.50962952 12.32895142 -6.50447327 11.15848267 -6.49916077 9.95254517 C-6.40691345 0.01289659 -6.40691345 0.01289659 0 0 Z " fill="#B2B2B2" transform="translate(11.264785766601563,38.875579833984375)"/>
<path d="M0 0 C12.21 0 24.42 0 37 0 C37 14.52 37 29.04 37 44 C43.6 44 50.2 44 57 44 C57 53.57 57 63.14 57 73 C51.02970315 75.98514842 43.6749948 74 37 74 C37 89.18 37 104.36 37 120 C24.79 120 12.58 120 0 120 C0 80.4 0 40.8 0 0 Z " fill="#B2B2B2" transform="translate(158,14)"/>
<path d="M0 0 C12.21 0 24.42 0 37 0 C37 39.6 37 79.2 37 120 C24.79 120 12.58 120 0 120 C0 80.4 0 40.8 0 0 Z " fill="#B2B2B2" transform="translate(796,14)"/>
<path d="M0 0 C26.73 0 53.46 0 81 0 C81.020625 11.17875 81.04125 22.3575 81.0625 33.875 C81.071604 37.40687012 81.08070801 40.93874023 81.09008789 44.57763672 C81.09460449 48.88500977 81.09460449 48.88500977 81.09544373 50.90042114 C81.09698097 52.31033646 81.10050142 53.72025045 81.10557556 55.13015747 C81.11287131 57.26371552 81.1139068 59.39719311 81.11352539 61.53076172 C81.115746 62.73433319 81.11796661 63.93790466 81.12025452 65.177948 C81 68 81 68 80 70 C68.12 70 56.24 70 44 70 C44 56.8 44 43.6 44 30 C40.90753906 30.01160156 37.81507813 30.02320312 34.62890625 30.03515625 C31.64705508 30.04294601 28.66520503 30.04902323 25.68334961 30.05493164 C23.60456844 30.05997288 21.52579084 30.06680574 19.44702148 30.07543945 C16.46597414 30.08751422 13.48497351 30.09323024 10.50390625 30.09765625 C9.10078941 30.10539818 9.10078941 30.10539818 7.66932678 30.11329651 C6.37810158 30.11340981 6.37810158 30.11340981 5.06079102 30.11352539 C4.29912125 30.115746 3.53745148 30.11796661 2.75270081 30.12025452 C1 30 1 30 0 29 C0 19.43 0 9.86 0 0 Z " fill="#B2B2B2" transform="translate(374,39)"/>
<path d="M0 0 C11.88 0 23.76 0 36 0 C36 12.87 36 25.74 36 39 C50.52 39 65.04 39 80 39 C80 49.23 80 59.46 80 70 C53.6 70 27.2 70 0 70 C0 46.9 0 23.8 0 0 Z " fill="#B2B2B2" transform="translate(641,39)"/>
<path d="M0 0 C1.953125 0.7109375 1.953125 0.7109375 4 2 C4.609375 4.1640625 4.609375 4.1640625 4.75 6.625 C4.80671875 7.44226563 4.8634375 8.25953125 4.921875 9.1015625 C4.94765625 9.72804688 4.9734375 10.35453125 5 11 C2.35974609 8.51165111 1.1314106 6.48126339 0 3 C0 2.01 0 1.02 0 0 Z " fill="#A8A8A8" transform="translate(256,104)"/>
</svg>
