<?xml version="1.0" encoding="UTF-8"?>
<svg version="1.1" xmlns="http://www.w3.org/2000/svg" width="347" height="356">
<path d="M0 0 C12.5811216 -1.30449418 23.76377324 4.14233138 34 11 C34.99 11.66 35.98 12.32 37 13 C37 13.66 37 14.32 37 15 C37.59296875 15.26039063 38.1859375 15.52078125 38.796875 15.7890625 C51.76761923 22.91837227 59.4863234 42.23475921 63.41015625 55.69140625 C70.38919777 80.80846479 70.38919777 80.80846479 68 89 C66.375 91.375 66.375 91.375 64 93 C56.91126237 94.2982702 49.86882359 94.1838491 42.6875 94.1875 C40.75680664 94.20586914 40.75680664 94.20586914 38.78710938 94.22460938 C36.94922852 94.22750977 36.94922852 94.22750977 35.07421875 94.23046875 C33.95619873 94.23457764 32.83817871 94.23868652 31.6862793 94.24291992 C29 94 29 94 27 92 C26.79122186 89.53017905 26.6989405 87.16322627 26.69140625 84.69140625 C26.66624815 83.20767833 26.6408501 81.72395446 26.61523438 80.24023438 C26.58647212 77.89869211 26.56245771 75.55722019 26.54370117 73.21557617 C26.52206554 70.95714899 26.48263083 68.69954827 26.44140625 66.44140625 C26.44123253 65.39129112 26.44123253 65.39129112 26.4410553 64.31996155 C26.36590117 60.38405551 26.36590117 60.38405551 24.47241211 57.03491211 C23.74356812 56.52263062 23.74356812 56.52263062 23 56 C19.87802522 57.3089572 19.87802522 57.3089572 18 60 C17.84373424 62.47832659 17.74186802 64.93311331 17.68359375 67.4140625 C17.6524221 68.50852188 17.6524221 68.50852188 17.62062073 69.62509155 C17.55518083 71.95829763 17.49626632 74.29161721 17.4375 76.625 C17.39430947 78.20574095 17.35069501 79.78647039 17.30664062 81.3671875 C17.19950519 85.24467504 17.09822218 89.12227685 17 93 C-76.44193831 96.69599924 -76.44193831 96.69599924 -112 93 C-112.33 92.67 -112.66 92.34 -113 92 C-112.81411718 80.66114807 -106.87069759 70.03298002 -99 62 C-98.34 62 -97.68 62 -97 62 C-97 61.34 -97 60.68 -97 60 C-96.34 60 -95.68 60 -95 60 C-95 59.34 -95 58.68 -95 58 C-83.76917933 48.73662237 -71.89523911 43.42199889 -58.10449219 39.05371094 C-57.35844727 38.81555664 -56.61240234 38.57740234 -55.84375 38.33203125 C-55.17537109 38.12296143 -54.50699219 37.9138916 -53.81835938 37.69848633 C-51.70916302 36.96460106 -51.70916302 36.96460106 -49 35 C-48.03385824 32.66061816 -47.20221447 30.4026991 -46.4375 28 C-44.24777117 21.24777117 -44.24777117 21.24777117 -42 19 C-40.33727699 18.69387445 -38.67181357 18.3975734 -36.99731445 18.16430664 C-29.73971534 17.14495676 -23.42940979 15.22140998 -16.8125 12.0625 C-15.75373657 11.55855713 -15.75373657 11.55855713 -14.67358398 11.04443359 C-10.70485169 9.07033429 -7.44509837 6.81528148 -4 4 C-3.34 4 -2.68 4 -2 4 C-2 3.34 -2 2.68 -2 2 C-1.34 2 -0.68 2 0 2 C0 1.34 0 0.68 0 0 Z " fill="#5A2400" transform="translate(246,242)"/>
<path d="M0 0 C1.20164795 0.07831055 2.4032959 0.15662109 3.64135742 0.23730469 C14.07958182 0.99339338 24.26581927 2.27732267 34.25 5.5 C35.22549805 5.79390625 35.22549805 5.79390625 36.22070312 6.09375 C41.30449393 7.69862302 47.06470258 9.57311456 50.31640625 14.00390625 C51.10083284 16.68279707 51.51557592 19.29322301 51.875 22.0625 C55.21290922 44.7251468 63.50713443 68.8624943 77.57519531 87.26757812 C79.2238475 89.51541788 79.3702121 90.79988407 79.375 93.5625 C79.39433594 94.30371094 79.41367187 95.04492188 79.43359375 95.80859375 C78.71724729 99.15342407 77.33629022 100.69155631 74.9375 103.125 C72.47570911 104.64451921 70.15350655 105.94488072 67.5625 107.1875 C66.85786621 107.53184082 66.15323242 107.87618164 65.42724609 108.23095703 C58.78433859 111.37587242 52.10363683 113.45907151 44.9375 115.125 C43.59751953 115.44404297 43.59751953 115.44404297 42.23046875 115.76953125 C38.92065906 116.49404077 35.84115697 117.14197008 32.44140625 117.078125 C24.56556183 117.03131463 20.17890844 120.35320898 14.05444336 124.82397461 C4.24672271 131.93194057 -5.83418322 135.54607485 -17.78515625 137.19140625 C-21.74595232 138.31969023 -23.25279635 140.20158153 -26.0625 143.125 C-27.3825 143.125 -28.7025 143.125 -30.0625 143.125 C-30.3925 142.135 -30.7225 141.145 -31.0625 140.125 C-33.62617673 139.37903705 -36.07452436 138.81301364 -38.6875 138.3125 C-49.94793853 135.91676355 -60.12621577 131.99069451 -70.0625 126.125 C-70.0625 125.465 -70.0625 124.805 -70.0625 124.125 C-70.784375 123.8775 -71.50625 123.63 -72.25 123.375 C-75.0625 122.125 -75.0625 122.125 -77.1875 120.13671875 C-81.01769966 117.45661981 -84.30855979 117.20202201 -88.875 116.6875 C-116.19569283 112.99180717 -116.19569283 112.99180717 -124.0625 105.125 C-124.20075999 102.69753596 -124.27562671 100.30058997 -124.30078125 97.87109375 C-124.308853 97.13681656 -124.31692474 96.40253937 -124.32524109 95.64601135 C-124.33910405 94.08491387 -124.34981626 92.52378579 -124.35766602 90.96264648 C-124.37475635 88.59623634 -124.41860325 86.23126868 -124.46289062 83.86523438 C-124.5440509 76.01359011 -124.45177995 69.9018553 -120.0625 63.125 C-118.74383088 59.96806676 -117.54479268 56.78447359 -116.3515625 53.578125 C-115.52621876 51.3672042 -114.66952901 49.16757977 -113.7734375 46.984375 C-111.56779566 41.38231535 -110.01029557 36.29741517 -109.2109375 30.3359375 C-108.99739624 28.80138916 -108.99739624 28.80138916 -108.77954102 27.23583984 C-108.51505783 25.20201685 -108.28986145 23.16259826 -108.10913086 21.11962891 C-107.56265685 16.89102095 -107.16072717 14.12256681 -103.92626953 11.18457031 C-99.33366914 8.33207734 -94.5381094 6.27699276 -89.3125 4.875 C-88.26578125 4.58109375 -87.2190625 4.2871875 -86.140625 3.984375 C-75.10619448 1.45255763 -63.77181624 0.65706726 -52.5 0 C-51.80151947 -0.04169312 -51.10303894 -0.08338623 -50.38339233 -0.12634277 C-33.4747731 -1.12358371 -16.90876053 -1.1051338 0 0 Z M-89.0625 20.125 C-90.23491348 23.02811909 -90.6702291 25.06990189 -91.0625 28.125 C-91.24425781 29.14335937 -91.42601562 30.16171875 -91.61328125 31.2109375 C-94.01084175 45.98773896 -94.81260816 62.53406193 -91.0625 77.125 C-90.81757813 78.09050781 -90.57265625 79.05601562 -90.3203125 80.05078125 C-87.17814881 90.77028658 -81.22490016 102.31510799 -72.0625 109.125 C-71.4025 109.125 -70.7425 109.125 -70.0625 109.125 C-70.0625 109.785 -70.0625 110.445 -70.0625 111.125 C-58.66467146 118.10573693 -46.77840401 124.79962272 -33.0625 125.125 C-32.25296875 125.15207031 -31.4434375 125.17914063 -30.609375 125.20703125 C-28.0871592 125.24958397 -25.58348135 125.20930033 -23.0625 125.125 C-22.35609375 125.10824219 -21.6496875 125.09148437 -20.921875 125.07421875 C-5.33816733 124.06416362 10.40269785 114.95806991 20.91015625 103.6875 C36.36141914 84.15758005 38.06543959 59.67479634 35.265625 35.66015625 C34.58466051 30.46677152 33.80557464 25.29035195 32.9375 20.125 C20.33661968 15.19183093 7.80366095 13.88017877 -5.625 12.9375 C-7.41587036 12.81169556 -7.41587036 12.81169556 -9.24291992 12.68334961 C-50.11021037 9.9458424 -50.11021037 9.9458424 -89.0625 20.125 Z " fill="#592401" transform="translate(223.0625,113.875)"/>
<path d="M0 0 C2.8125 2.375 2.8125 2.375 5 5 C5.804375 5.845625 6.60875 6.69125 7.4375 7.5625 C9.83585774 10.43754996 11.24840757 13.54722397 12.8125 16.9375 C16.17220738 23.92603861 20.79838878 28.91765358 28 32 C29.175625 32.144375 30.35125 32.28875 31.5625 32.4375 C35 33 35 33 36.9375 34.1875 C38.55276777 36.94295679 38.45547602 38.87673586 38 42 C32.79601944 47.20398056 25.68259213 46.4138955 18.83520508 46.453125 C10.03046103 46.28862426 3.64616711 44.03136239 -3.06640625 38.20703125 C-7.2241539 33.85172324 -9.90973407 28.7982667 -12.54296875 23.41796875 C-14.1188823 20.80271276 -15.31114967 19.44316826 -18 18 C-20.20800528 18.21717352 -20.20800528 18.21717352 -22 19 C-22.49827508 23.98275079 -22.79256087 26.97801362 -19.625 31.0625 C-18.75875 32.031875 -17.8925 33.00125 -17 34 C-16.55664062 35.94897461 -16.55664062 35.94897461 -16.28125 38.02734375 C-15.86203989 40.15461201 -15.86203989 40.15461201 -15 42 C-12.38060161 43.33256177 -10.6681052 43.92466835 -7.875 44.5 C-6.41765475 44.8809328 -4.96324571 45.27324621 -3.51171875 45.67578125 C-2.7645459 45.88283691 -2.01737305 46.08989258 -1.24755859 46.30322266 C10.02311681 49.79730343 20.21197138 56.12296737 28 65 C28 65.66 28 66.32 28 67 C28.66 67 29.32 67 30 67 C34.51680359 72.84019828 38.49555281 79.04320224 41 86 C41.5878125 87.4540625 41.5878125 87.4540625 42.1875 88.9375 C43.20689067 92.7798187 43.13680573 96.03263389 43 100 C39.86416788 99.28698017 36.94206395 98.2666458 33.9375 97.125 C18.8740548 91.61836308 3.95102538 89.86909826 -11.94995117 88.69702148 C-12.96033447 88.62040283 -13.97071777 88.54378418 -15.01171875 88.46484375 C-15.92397217 88.399021 -16.83622559 88.33319824 -17.77612305 88.26538086 C-20 88 -20 88 -22 87 C-22.47439128 85.41194625 -22.88094799 83.80328539 -23.25 82.1875 C-24.33718405 78.37962421 -24.8854365 77.11201765 -27.8125 74.25 C-30.94026522 72.70388162 -30.94026522 72.70388162 -34.1875 73.5625 C-36.81398279 74.90492454 -38.1628975 75.76263494 -40 78 C-40.78356902 80.26393971 -40.78356902 80.26393971 -41.1875 82.6875 C-41.42533203 83.89986328 -41.42533203 83.89986328 -41.66796875 85.13671875 C-41.77753906 85.75160156 -41.88710937 86.36648437 -42 87 C-48.4185619 88.23112081 -54.71895043 89.10435401 -61.25 89.4375 C-74.14271511 90.20053824 -90.57563351 92.13526406 -102.171875 98.12109375 C-104 99 -104 99 -108 99 C-106.4244811 87.78699847 -101.45968045 78.16907249 -95 69 C-94.47664062 68.23816406 -93.95328125 67.47632812 -93.4140625 66.69140625 C-92.71410156 65.85416016 -92.71410156 65.85416016 -92 65 C-91.34 65 -90.68 65 -90 65 C-90 64.34 -90 63.68 -90 63 C-89.34 63 -88.68 63 -88 63 C-88 62.34 -88 61.68 -88 61 C-77.31643228 51.09233385 -63.07725279 45.03627021 -49 42 C-48.731875 40.783125 -48.46375 39.56625 -48.1875 38.3125 C-47.30389178 34.77806712 -46.16584605 31.97803832 -44 29 C-43.34 28.67 -42.68 28.34 -42 28 C-41.79297234 25.98591661 -41.68541177 23.96129415 -41.625 21.9375 C-41.11378315 13.74906175 -38.66173203 7.99477509 -33 2 C-22.80346917 -5.75822998 -11.14646517 -6.21046244 0 0 Z " fill="#5A2401" transform="translate(227,13)"/>
<path d="M0 0 C1.8828125 0.26171875 1.8828125 0.26171875 4 1 C8.63460086 7.95190129 10.1917092 18.12371311 12.5390625 26.1015625 C14.21808623 31.78390556 16.06486361 37.39948762 18 43 C20.39719432 43.67958603 20.39719432 43.67958603 23 44 C23.99 43.01 23.99 43.01 25 42 C24.55361525 37.29203586 23.22718772 32.74499064 22 28.1875 C21.82210937 27.50751953 21.64421875 26.82753906 21.4609375 26.12695312 C20.76928545 22.78806802 20.76928545 22.78806802 19 20 C18.85884839 17.32941149 18.95752893 14.67567762 19 12 C19.66 12 20.32 12 21 12 C21 11.34 21 10.68 21 10 C30.94949794 5.71959202 39.08231994 2.60459106 50 3 C50 3.66 50 4.32 50 5 C50.74121094 5.27328125 51.48242188 5.5465625 52.24609375 5.828125 C54.82201514 6.92426176 56.79730961 8.12639533 59.0625 9.75 C68.50152591 16.15225804 78.08452751 20.02769224 89.171875 22.48046875 C91.9409118 23.14984335 93.65005089 23.57714483 95.5 25.8125 C96.11078109 28.48466727 95.59538981 30.35139091 95 33 C94.175 33.1959375 93.35 33.391875 92.5 33.59375 C78.96807163 37.09755288 67.04822223 42.88357166 56.0390625 51.53125 C54 53 54 53 52 53 C52 53.66 52 54.32 52 55 C51.34 55 50.68 55 50 55 C49.72414063 55.60070312 49.44828125 56.20140625 49.1640625 56.8203125 C48 59 48 59 45.375 61.875 C38.73504659 69.41004516 34.42044536 79.05105396 30 88 C25.52084729 88.0292814 21.04171958 88.04689296 16.5625 88.0625 C15.30244141 88.07087891 14.04238281 88.07925781 12.74414062 88.08789062 C-2.60882715 88.1279767 -14.98900732 86.46390932 -27 76 C-27.86625 75.2575 -28.7325 74.515 -29.625 73.75 C-37.50949089 64.62058949 -40.639788 53.9529345 -44.17285156 42.63134766 C-44.94431785 40.17713761 -45.74320981 37.73419024 -46.5546875 35.29296875 C-47.01619277 33.88299821 -47.47716481 32.47285298 -47.9375 31.0625 C-48.33839844 29.83660156 -48.73929688 28.61070312 -49.15234375 27.34765625 C-49.98006176 24.07874227 -50.16899913 21.35437671 -50 18 C-46.71090297 16.91617855 -44.63941146 17.14282474 -41.3125 18 C-36.21809568 19.09645305 -32.08816879 19.02463984 -27 18 C-26.22011719 17.85949219 -25.44023438 17.71898437 -24.63671875 17.57421875 C-14.64841729 15.23246386 -5.92701893 8.25549065 0 0 Z " fill="#5A2401" transform="translate(93,239)"/>
<path d="M0 0 C1.21816406 0.03480469 1.21816406 0.03480469 2.4609375 0.0703125 C3.68683594 0.09738281 3.68683594 0.09738281 4.9375 0.125 C5.87722656 0.15980469 5.87722656 0.15980469 6.8359375 0.1953125 C6.8359375 0.8553125 6.8359375 1.5153125 6.8359375 2.1953125 C7.4959375 2.1953125 8.1559375 2.1953125 8.8359375 2.1953125 C10.58168661 7.70606052 12.32190678 13.21850436 14.05761719 18.73242188 C14.74069603 20.89393361 15.43110216 23.05288202 16.125 25.2109375 C16.66253906 26.90476563 16.66253906 26.90476563 17.2109375 28.6328125 C17.52804688 29.62152344 17.84515625 30.61023438 18.171875 31.62890625 C18.8359375 34.1953125 18.8359375 34.1953125 18.8359375 38.1953125 C19.4959375 38.1953125 20.1559375 38.1953125 20.8359375 38.1953125 C20.78373047 36.65810547 20.78373047 36.65810547 20.73046875 35.08984375 C20.70231715 33.72918314 20.67501846 32.3685047 20.6484375 31.0078125 C20.62330078 30.33427734 20.59816406 29.66074219 20.57226562 28.96679688 C20.50744759 24.53756468 20.89923453 21.59229341 23.8359375 18.1953125 C25.9921875 17.56640625 25.9921875 17.56640625 28.3359375 17.6328125 C29.109375 17.63152344 29.8828125 17.63023437 30.6796875 17.62890625 C32.8359375 18.1953125 32.8359375 18.1953125 34.44799805 19.77270508 C36.36508994 23.1189325 36.20796053 25.67989096 36.19921875 29.5234375 C36.19996651 30.58519196 36.19996651 30.58519196 36.20072937 31.668396 C36.19839326 33.16453866 36.18869189 34.66068558 36.17211914 36.15673828 C36.14865939 38.42386896 36.15154498 40.68981101 36.15820312 42.95703125 C36.1147284 54.32477499 35.34098371 63.20922613 27.8359375 72.1953125 C21.24849284 78.57473259 13.98633606 81.27208925 4.8984375 81.6328125 C-1.07132079 81.50253536 -5.85329824 79.82719567 -11.1640625 77.1953125 C-11.1640625 76.5353125 -11.1640625 75.8753125 -11.1640625 75.1953125 C-11.76347656 74.94136719 -12.36289062 74.68742187 -12.98046875 74.42578125 C-21.33881571 69.7158004 -23.60982046 57.76170548 -26.1640625 49.1953125 C-26.42832031 48.31746094 -26.69257813 47.43960938 -26.96484375 46.53515625 C-27.42907095 44.98168087 -27.88488418 43.42566501 -28.33203125 41.8671875 C-29.00318002 39.71194918 -29.75324961 37.58137876 -30.52734375 35.4609375 C-30.76582031 34.79835937 -31.00429688 34.13578125 -31.25 33.453125 C-31.94431929 31.53441471 -32.65726617 29.62247579 -33.37109375 27.7109375 C-34.27325322 23.71121569 -33.89736275 21.86295409 -32.1640625 18.1953125 C-29.77316488 16.23136088 -28.25893178 16.20124183 -25.1640625 16.0078125 C-21.72023415 17.37099456 -21.54432314 17.78350531 -20.1015625 21.0078125 C-19.4424873 22.73197547 -18.79820569 24.46182455 -18.1640625 26.1953125 C-17.25480961 28.38590448 -16.33804166 30.57339117 -15.4140625 32.7578125 C-14.66299696 34.56987122 -13.9126171 36.38221508 -13.1640625 38.1953125 C-13.93278268 35.54884896 -14.70386974 32.90311655 -15.4765625 30.2578125 C-15.7029541 29.47889648 -15.9293457 28.69998047 -16.16259766 27.89746094 C-17.34380233 23.86469517 -18.59321005 19.89282592 -20.0390625 15.9453125 C-21.12162093 12.33678442 -21.58486168 10.6458248 -20.1640625 7.1953125 C-19.0390625 5.3828125 -19.0390625 5.3828125 -17.1640625 4.1953125 C-11.07631272 3.54305359 -11.07631272 3.54305359 -8.6015625 5.3125 C-3.14460612 12.45992656 -1.33045146 23.5649825 0.8359375 32.1953125 C0.8359375 28.71600861 0.59783386 27.03936199 -0.51171875 23.89453125 C-0.78693359 23.08177734 -1.06214844 22.26902344 -1.34570312 21.43164062 C-1.92974681 19.74166944 -2.52082525 18.05411195 -3.11914062 16.36914062 C-4.83054838 11.2671321 -5.60134631 7.56256074 -4.1640625 2.1953125 C-2.1640625 0.1953125 -2.1640625 0.1953125 0 0 Z " fill="#592401" transform="translate(54.1640625,166.8046875)"/>
<path d="M0 0 C1.2684375 -0.00386719 1.2684375 -0.00386719 2.5625 -0.0078125 C4.84698944 0.11666289 6.80991574 0.48622543 9 1.125 C9 1.785 9 2.445 9 3.125 C9.66 3.125 10.32 3.125 11 3.125 C11 3.785 11 4.445 11 5.125 C14.33864404 4.54937172 15.69102632 3.53436384 18 1.125 C24.02562168 -0.88354056 30.68771132 -0.89416284 36.4375 1.9375 C37.64234013 2.63764324 38.83257169 3.36411143 40 4.125 C40.825 4.66125 41.65 5.1975 42.5 5.75 C42.995 6.20375 43.49 6.6575 44 7.125 C44 7.785 44 8.445 44 9.125 C44.598125 9.41375 45.19625 9.7025 45.8125 10 C48 11.125 48 11.125 51 13.125 C54.43307165 13.36770825 54.43307165 13.36770825 58.1875 13.25 C59.45980469 13.23195312 60.73210937 13.21390625 62.04296875 13.1953125 C63.50669922 13.16050781 63.50669922 13.16050781 65 13.125 C66.203125 18.734375 66.203125 18.734375 64.375 22.25 C59.61487599 28.01225538 55.0388034 30.14809099 48 32.125 C47.34515625 32.31320313 46.6903125 32.50140625 46.015625 32.6953125 C35.43923524 34.94996923 25.98034098 32.14242785 17.06640625 26.5625 C15 25.125 15 25.125 13 23.125 C12.61070312 23.52332031 12.22140625 23.92164063 11.8203125 24.33203125 C6.98568501 28.91044576 2.41931998 30.63038446 -4 32.125 C-4.67289063 32.310625 -5.34578125 32.49625 -6.0390625 32.6875 C-14.49906796 34.57499126 -23.50112225 32.92484313 -30.8125 28.4375 C-34.96013748 25.45933649 -37.10095863 22.87260342 -39 18.125 C-38.5859375 15.41015625 -38.5859375 15.41015625 -38 13.125 C-37.16339844 13.26421875 -36.32679688 13.4034375 -35.46484375 13.546875 C-27.83238925 14.25687077 -23.81431411 13.61623664 -17.84594727 8.88183594 C-15.37762962 6.75993275 -12.95741867 4.59407993 -10.60888672 2.34008789 C-7.40342478 -0.08078982 -3.89256122 -0.01186756 0 0 Z " fill="#572301" transform="translate(181,169.875)"/>
<path d="M0 0 C13.72311332 13.10468976 19.04597028 36.75358735 21 55 C21.0668386 58.70954251 20.51330149 61.24979013 18.375 64.375 C12.05512377 68.69912584 2.05761186 67.18375312 -5.3125 67.1875 C-7.24319336 67.20586914 -7.24319336 67.20586914 -9.21289062 67.22460938 C-11.05077148 67.22750977 -11.05077148 67.22750977 -12.92578125 67.23046875 C-14.04380127 67.23457764 -15.16182129 67.23868652 -16.3137207 67.24291992 C-19 67 -19 67 -21 65 C-21.20877814 62.53017905 -21.3010595 60.16322627 -21.30859375 57.69140625 C-21.33375185 56.20767833 -21.3591499 54.72395446 -21.38476562 53.24023438 C-21.41352788 50.89869211 -21.43754229 48.55722019 -21.45629883 46.21557617 C-21.47793446 43.95714899 -21.51736917 41.69954827 -21.55859375 39.44140625 C-21.55876747 38.39129112 -21.55876747 38.39129112 -21.5589447 37.31996155 C-21.63409883 33.38405551 -21.63409883 33.38405551 -23.52758789 30.03491211 C-24.25643188 29.52263062 -24.25643188 29.52263062 -25 29 C-28.12197478 30.3089572 -28.12197478 30.3089572 -30 33 C-30.15626576 35.47832659 -30.25813198 37.93311331 -30.31640625 40.4140625 C-30.3475779 41.50852188 -30.3475779 41.50852188 -30.37937927 42.62509155 C-30.44481917 44.95829763 -30.50373368 47.29161721 -30.5625 49.625 C-30.60569053 51.20574095 -30.64930499 52.78647039 -30.69335938 54.3671875 C-30.80049481 58.24467504 -30.90177782 62.12227685 -31 66 C-124.44193831 69.69599924 -124.44193831 69.69599924 -160 66 C-160.33 65.67 -160.66 65.34 -161 65 C-160.81411718 53.66114807 -154.87069759 43.03298002 -147 35 C-146.34 35 -145.68 35 -145 35 C-145 34.34 -145 33.68 -145 33 C-144.34 33 -143.68 33 -143 33 C-143 32.34 -143 31.68 -143 31 C-140.89018257 29.25032211 -138.79382484 27.6439465 -136.5625 26.0625 C-135.92812012 25.60955566 -135.29374023 25.15661133 -134.64013672 24.68994141 C-129.92774173 21.42365292 -125.61062713 19.35428931 -120 18 C-122.73107845 21.168051 -125.1753064 22.51019679 -129.01953125 24.04296875 C-141.32483958 29.9893209 -151.28868383 42.28392928 -157.12890625 54.328125 C-158.3584087 57.81276428 -158.3584087 57.81276428 -159 65 C-117.42 64.67 -75.84 64.34 -33 64 C-32.67 52.78 -32.34 41.56 -32 30 C-29 27 -29 27 -25.8125 26.8125 C-24.4203125 26.9053125 -24.4203125 26.9053125 -23 27 C-22.01 28.98 -22.01 28.98 -21 31 C-20.34 31 -19.68 31 -19 31 C-19 42.22 -19 53.44 -19 65 C-13.6375 64.9175 -8.275 64.835 -2.75 64.75 C-1.06358398 64.73420898 0.62283203 64.71841797 2.36035156 64.70214844 C3.70381076 64.67277113 5.04723938 64.64194396 6.390625 64.609375 C7.08269043 64.60824707 7.77475586 64.60711914 8.48779297 64.60595703 C11.90266517 64.50486695 13.71609275 64.21863116 16.45605469 62.10864258 C18.99556716 58.64030462 18.11399611 55.87971276 17.6171875 51.7734375 C16.86670477 47.18504308 16.03940094 42.62098066 15.125 38.0625 C14.96386719 37.24579834 14.80273438 36.42909668 14.63671875 35.58764648 C13.69065114 31.14745415 12.53310739 27.83038611 10 24 C9.5153418 22.64090557 9.07586962 21.26467633 8.6875 19.875 C7.17264907 15.03881814 4.84076589 10.85236507 2.3046875 6.48046875 C1.14356296 4.27294155 0.46529568 2.4342908 0 0 Z " fill="#150A03" transform="translate(294,269)"/>
<path d="M0 0 C2.10546875 0.1328125 2.10546875 0.1328125 3.89453125 0.6328125 C7.15893973 1.37105329 10.32707477 1.26434406 13.66796875 1.2578125 C14.67633789 1.26361328 14.67633789 1.26361328 15.70507812 1.26953125 C18.78046627 1.26342323 21.16573188 1.11272479 24.10546875 0.1328125 C25.49986539 0.06615874 26.8971675 0.04743051 28.29296875 0.0703125 C30.18015625 0.10125 30.18015625 0.10125 32.10546875 0.1328125 C32.45389229 3.79125965 32.23679626 5.86468549 30.60546875 9.1953125 C26.50058837 14.01854694 23.12128827 16.76788457 16.68359375 17.546875 C9.24615253 17.71947385 3.77335855 17.36759354 -2.01171875 12.265625 C-2.59179688 11.60304687 -3.171875 10.94046875 -3.76953125 10.2578125 C-4.66285156 9.27167969 -4.66285156 9.27167969 -5.57421875 8.265625 C-7.17517411 5.67946635 -7.22906264 4.12332039 -6.89453125 1.1328125 C-5.03228264 -0.72943611 -2.4692195 0.00926536 0 0 Z " fill="#592503" transform="translate(181.89453125,207.8671875)"/>
<path d="M0 0 C2.8125 2.375 2.8125 2.375 5 5 C5.86625 5.9075 6.7325 6.815 7.625 7.75 C10.61997268 11.35908379 11.77978695 15.5358059 13 20 C10.68497627 17.89365446 9.42375932 16.04952501 8.1875 13.1875 C5.19864968 7.04061916 0.72102701 2.55693159 -5.53125 -0.3046875 C-12.13829908 -2.1655336 -20.07619737 -2.27764481 -26.4375 0.5 C-31.65395444 3.66352721 -35.66239991 8.32479983 -38.375 13.75 C-39.17088537 17.88860393 -39.34310712 21.98555422 -39.4609375 26.1953125 C-40.12439142 29.64719593 -41.40038542 30.72471354 -44 33 C-45.79490911 36.58981823 -46.37571275 40.05884747 -47 44 C-48.30710937 44.34611328 -48.30710937 44.34611328 -49.640625 44.69921875 C-62.82122016 48.30819123 -77.09842618 52.37303273 -86 63.5 C-88 66 -88 66 -90.49609375 67.94140625 C-98.76559603 74.74020142 -102.50598483 85.97471532 -105 96 C-104.41992188 95.80664062 -103.83984375 95.61328125 -103.2421875 95.4140625 C-100.828125 94.609375 -98.4140625 93.8046875 -96 93 C-95.06414062 92.6596875 -94.12828125 92.319375 -93.1640625 91.96875 C-89.60851614 90.88013828 -86.18726338 90.34714958 -82.5 89.875 C-81.2315625 89.70742187 -79.963125 89.53984375 -78.65625 89.3671875 C-75.40256477 89.04042851 -72.26617084 88.92943458 -69 89 C-69 89.33 -69 89.66 -69 90 C-69.98097656 90.17015625 -70.96195313 90.3403125 -71.97265625 90.515625 C-87.52129983 92.89078531 -87.52129983 92.89078531 -102.171875 98.12109375 C-104 99 -104 99 -108 99 C-106.4244811 87.78699847 -101.45968045 78.16907249 -95 69 C-94.47664062 68.23816406 -93.95328125 67.47632812 -93.4140625 66.69140625 C-92.71410156 65.85416016 -92.71410156 65.85416016 -92 65 C-91.34 65 -90.68 65 -90 65 C-90 64.34 -90 63.68 -90 63 C-89.34 63 -88.68 63 -88 63 C-88 62.34 -88 61.68 -88 61 C-77.31643228 51.09233385 -63.07725279 45.03627021 -49 42 C-48.731875 40.783125 -48.46375 39.56625 -48.1875 38.3125 C-47.30389178 34.77806712 -46.16584605 31.97803832 -44 29 C-43.34 28.67 -42.68 28.34 -42 28 C-41.79297234 25.98591661 -41.68541177 23.96129415 -41.625 21.9375 C-41.11378315 13.74906175 -38.66173203 7.99477509 -33 2 C-22.80346917 -5.75822998 -11.14646517 -6.21046244 0 0 Z " fill="#0C0601" transform="translate(227,13)"/>
<path d="M0 0 C1.20164795 0.07831055 2.4032959 0.15662109 3.64135742 0.23730469 C14.07958182 0.99339338 24.26581927 2.27732267 34.25 5.5 C35.22549805 5.79390625 35.22549805 5.79390625 36.22070312 6.09375 C41.30449393 7.69862302 47.06470258 9.57311456 50.31640625 14.00390625 C51.10083284 16.68279707 51.51557592 19.29322301 51.875 22.0625 C53.31958987 32.06264541 55.42981926 41.51566371 59.265625 50.8828125 C59.9375 53.125 59.9375 53.125 58.9375 56.125 C52.82024858 44.58378566 49.16205088 32.34341764 48.5625 19.25 C48.2808459 15.68034042 48.17337022 15.35497346 45.4375 12.6875 C37.97856161 9.35761679 30.45046891 7.47731728 22.4375 6 C20.65560853 5.66748179 18.87431726 5.3317251 17.09375 4.9921875 C16.31837891 4.84894043 15.54300781 4.70569336 14.74414062 4.55810547 C12.9375 4.125 12.9375 4.125 11.9375 3.125 C10.40305622 2.9658795 8.86161782 2.87351635 7.3203125 2.80859375 C5.84208008 2.74551025 5.84208008 2.74551025 4.33398438 2.68115234 C3.25439453 2.64199707 2.17480469 2.6028418 1.0625 2.5625 C-0.05576172 2.5207666 -1.17402344 2.4790332 -2.32617188 2.43603516 C-41.94132609 0.93626915 -41.94132609 0.93626915 -81.0625 6.125 C-82.94388672 6.4653125 -82.94388672 6.4653125 -84.86328125 6.8125 C-92.94595666 8.31466565 -99.55505931 10.0695217 -105.0625 16.4375 C-105.3925 16.994375 -105.7225 17.55125 -106.0625 18.125 C-106.3203125 15.81640625 -106.3203125 15.81640625 -106.0625 13.125 C-93.46991143 0.79354805 -68.77004031 0.94842841 -52.5 0 C-51.80151947 -0.04169312 -51.10303894 -0.08338623 -50.38339233 -0.12634277 C-33.4747731 -1.12358371 -16.90876053 -1.1051338 0 0 Z " fill="#120902" transform="translate(223.0625,113.875)"/>
<path d="M0 0 C3.46014553 0.05392435 5.29897186 0.10468262 8.375 1.75 C10.31377051 5.53521862 10.31920806 9.14028865 9.6875 13.3125 C8.76613448 15.88115539 8.1081534 17.02402643 5.84765625 18.57421875 C3.36801088 19.42169248 1.71938727 19.42789801 -0.875 19.125 C-1.63941406 19.04894531 -2.40382812 18.97289062 -3.19140625 18.89453125 C-5.76348353 18.18874946 -6.72895005 17.44811324 -8.3125 15.3125 C-9.58521617 11.01104154 -9.81337857 7.40532596 -7.9375 3.3125 C-5.26220341 0.01982728 -4.30696594 0.10838722 0 0 Z " fill="#582503" transform="translate(163.3125,144.6875)"/>
<path d="M0 0 C2.79202215 2.12725497 3.77279657 3.49029301 4.296875 6.97265625 C4.43666047 10.71191746 4.31791634 13.98670876 2 17 C-1.2322715 19.30876536 -4.10964537 19.46684256 -8 19 C-13.57894737 15.84210526 -13.57894737 15.84210526 -15 13 C-15.37677003 8.00779715 -15.07396361 5.01979857 -12 1 C-8.27929915 -0.86035042 -4.05225244 -0.56208663 0 0 Z " fill="#5C2401" transform="translate(231,145)"/>
<path d="M0 0 C2.19510603 0.25361783 4.38228739 0.57765908 6.5625 0.9375 C8.35880859 1.22947266 8.35880859 1.22947266 10.19140625 1.52734375 C11.11824219 1.68332031 12.04507813 1.83929688 13 2 C13 2.33 13 2.66 13 3 C9.04 2.67 5.08 2.34 1 2 C2.1013547 5.97996399 3.20599183 9.95896862 4.3125 13.9375 C4.62123047 15.05447266 4.92996094 16.17144531 5.24804688 17.32226562 C11.97212161 42.78968296 11.97212161 42.78968296 29 62 C31.93115973 63.53368771 34.91857314 64.80227225 38 66 C38.70261963 66.34369629 39.40523926 66.68739258 40.12915039 67.04150391 C43.82700164 68.27611263 47.29435926 68.24903644 51.14453125 68.1953125 C51.91431808 68.1924826 52.68410492 68.18965271 53.47721863 68.18673706 C55.92247425 68.17559157 58.36735612 68.15049781 60.8125 68.125 C62.47590615 68.1149629 64.13931807 68.10583833 65.80273438 68.09765625 C69.86863237 68.07567073 73.93425294 68.04118014 78 68 C79.32 65.69 80.64 63.38 82 61 C82.33 61.66 82.66 62.32 83 63 C82.22265625 64.9453125 82.22265625 64.9453125 81.0625 67.125 C80.68222656 67.84945312 80.30195312 68.57390625 79.91015625 69.3203125 C79.60980469 69.87460937 79.30945313 70.42890625 79 71 C74.52084729 71.0292814 70.04171958 71.04689296 65.5625 71.0625 C64.30244141 71.07087891 63.04238281 71.07925781 61.74414062 71.08789062 C46.39117285 71.1279767 34.01099268 69.46390932 22 59 C21.13375 58.2575 20.2675 57.515 19.375 56.75 C11.49050911 47.62058949 8.360212 36.9529345 4.82714844 25.63134766 C4.05568215 23.17713761 3.25679019 20.73419024 2.4453125 18.29296875 C1.98380723 16.88299821 1.52283519 15.47285298 1.0625 14.0625 C0.66160156 12.83660156 0.26070312 11.61070312 -0.15234375 10.34765625 C-0.9841851 7.06245793 -1.24618923 4.3712852 -1 1 C-0.67 0.67 -0.34 0.34 0 0 Z " fill="#0F0701" transform="translate(44,256)"/>
<path d="M0 0 C0.33 0 0.66 0 1 0 C2.98578707 15.70242738 -4.77511811 38.28378015 -13.58032227 51.34399414 C-15.25241734 54.4722353 -15.3602949 56.43697051 -15.328125 59.96484375 C-15.32296875 61.09470703 -15.3178125 62.22457031 -15.3125 63.38867188 C-15.2815625 65.1453418 -15.2815625 65.1453418 -15.25 66.9375 C-15.24484375 68.10474609 -15.2396875 69.27199219 -15.234375 70.47460938 C-15.18603968 75.77638957 -14.97198518 80.7763101 -14 86 C-12.68 86.33 -11.36 86.66 -10 87 C-10 87.66 -10 88.32 -10 89 C-8.69095703 89.18949219 -8.69095703 89.18949219 -7.35546875 89.3828125 C-4.18091391 89.96672363 -1.35925462 90.8255171 1.6875 91.875 C5.77199032 93.19728316 9.59941561 94.14403215 13.859375 94.68359375 C14.69895752 94.7913916 15.53854004 94.89918945 16.40356445 95.01025391 C18.05794741 95.20758757 19.71568035 95.37904311 21.37573242 95.52099609 C26.06894025 96.08235881 28.43285964 96.95991072 31.56640625 100.60546875 C32.40091778 101.71989613 33.22088701 102.84616256 34 104 C31.50638429 102.79618552 29.31856917 101.54571278 27 100 C24.10029284 99.49582981 21.22809986 99.06899377 18.3125 98.6875 C-9.30363723 94.69636277 -9.30363723 94.69636277 -17 87 C-17.13825999 84.57253596 -17.21312671 82.17558997 -17.23828125 79.74609375 C-17.246353 79.01181656 -17.25442474 78.27753937 -17.26274109 77.52101135 C-17.27660405 75.95991387 -17.28731626 74.39878579 -17.29516602 72.83764648 C-17.31225635 70.47123634 -17.35610325 68.10626868 -17.40039062 65.74023438 C-17.4815509 57.88859011 -17.38927995 51.7768553 -13 45 C-11.20918221 40.71272875 -9.62107611 36.3538872 -8 32 C-7.56300781 30.90558594 -7.12601563 29.81117188 -6.67578125 28.68359375 C-3.04462029 19.27310754 -1.38865687 9.95768583 0 0 Z " fill="#0E0701" transform="translate(116,132)"/>
<path d="M0 0 C0.7734375 0.02191406 1.546875 0.04382813 2.34375 0.06640625 C3.1171875 0.06511719 3.890625 0.06382812 4.6875 0.0625 C6.84375 0.62890625 6.84375 0.62890625 8.45581055 2.20629883 C10.37290244 5.55252625 10.21577303 8.11348471 10.20703125 11.95703125 C10.20777901 13.01878571 10.20777901 13.01878571 10.20854187 14.10198975 C10.20620576 15.59813241 10.19650439 17.09427933 10.17993164 18.59033203 C10.15647189 20.85746271 10.15935748 23.12340476 10.16601562 25.390625 C10.1225409 36.75836874 9.34879621 45.64281988 1.84375 54.62890625 C-4.74369466 61.00832634 -12.00585144 63.705683 -21.09375 64.06640625 C-27.06350829 63.93612911 -31.84548574 62.26078942 -37.15625 59.62890625 C-36.82625 58.96890625 -36.49625 58.30890625 -36.15625 57.62890625 C-34.939375 58.12390625 -33.7225 58.61890625 -32.46875 59.12890625 C-24.68760788 61.70625616 -15.53948983 62.06583499 -7.9375 58.68359375 C-3.49749677 56.05464447 -0.01241572 52.91315483 2.84375 48.62890625 C3.50375 48.62890625 4.16375 48.62890625 4.84375 48.62890625 C6.9852188 43.39008811 7.10701395 38.8487454 7.0390625 33.29296875 C7.0362326 32.41361664 7.03340271 31.53426453 7.03048706 30.62826538 C7.01934712 27.83667031 6.99425411 25.04540335 6.96875 22.25390625 C6.9587122 20.35417132 6.94958775 18.45443133 6.94140625 16.5546875 C6.91942806 11.91263518 6.8849411 7.27082623 6.84375 2.62890625 C2.84120544 2.53709491 2.84120544 2.53709491 -1.15625 2.62890625 C-3.27550604 4.74816229 -2.57456017 9.24851555 -2.71875 12.19140625 C-2.78352539 13.40086914 -2.78352539 13.40086914 -2.84960938 14.63476562 C-2.95600262 16.6325943 -3.05665888 18.63072695 -3.15625 20.62890625 C-4.47625 20.95890625 -5.79625 21.28890625 -7.15625 21.62890625 C-6.49625 21.29890625 -5.83625 20.96890625 -5.15625 20.62890625 C-5.20845703 19.09169922 -5.20845703 19.09169922 -5.26171875 17.5234375 C-5.28987035 16.16277689 -5.31716904 14.80209845 -5.34375 13.44140625 C-5.36888672 12.76787109 -5.39402344 12.09433594 -5.41992188 11.40039062 C-5.49030599 6.59080932 -5.25826417 1.53366038 0 0 Z " fill="#1D0D04" transform="translate(80.15625,184.37109375)"/>
<path d="M0 0 C2.97 0.495 2.97 0.495 6 1 C8.31441054 12.18631762 9.30038733 23.06866356 9.3125 34.5 C9.32023437 36.25135254 9.32023437 36.25135254 9.328125 38.03808594 C9.27074985 45.23661792 8.52125932 51.97012902 7 59 C6.81928955 59.92296875 6.6385791 60.8459375 6.45239258 61.796875 C3.61314956 75.66864365 -6.9610559 88.370363 -18.18359375 96.6015625 C-20.0625 97.75 -20.0625 97.75 -23 99 C-23.66 98.67 -24.32 98.34 -25 98 C-23.93072266 97.25556641 -23.93072266 97.25556641 -22.83984375 96.49609375 C-6.40018406 84.83566218 1.94171374 71.67785439 5.5859375 51.8046875 C6.13988613 46.71463118 6.19072471 41.67931566 6.1875 36.5625 C6.18814453 35.50369629 6.18878906 34.44489258 6.18945312 33.35400391 C6.13943918 25.86441504 5.5826949 18.6382379 4.4375 11.2421875 C4.01562318 8.11577893 3.92340464 5.14998398 4 2 C2.68 1.34 1.36 0.68 0 0 Z " fill="#120802" transform="translate(252,132)"/>
<path d="M0 0 C2.10546875 0.1328125 2.10546875 0.1328125 3.89453125 0.6328125 C7.15893973 1.37105329 10.32707477 1.26434406 13.66796875 1.2578125 C14.67633789 1.26361328 14.67633789 1.26361328 15.70507812 1.26953125 C18.78046627 1.26342323 21.16573188 1.11272479 24.10546875 0.1328125 C25.49986539 0.06615874 26.8971675 0.04743051 28.29296875 0.0703125 C30.18015625 0.10125 30.18015625 0.10125 32.10546875 0.1328125 C32.45389229 3.79125965 32.23679626 5.86468549 30.60546875 9.1953125 C26.50058837 14.01854694 23.12128827 16.76788457 16.68359375 17.546875 C9.24615253 17.71947385 3.77335855 17.36759354 -2.01171875 12.265625 C-2.59179688 11.60304687 -3.171875 10.94046875 -3.76953125 10.2578125 C-4.66285156 9.27167969 -4.66285156 9.27167969 -5.57421875 8.265625 C-7.17517411 5.67946635 -7.22906264 4.12332039 -6.89453125 1.1328125 C-5.03228264 -0.72943611 -2.4692195 0.00926536 0 0 Z M-4.89453125 2.1328125 C-4.4602564 7.05459411 -2.20357428 9.58740925 1.10546875 13.1328125 C6.19501937 16.52584624 12.15967069 15.5560727 18.10546875 15.1328125 C23.78323033 13.98569259 26.96397274 10.79745809 30.10546875 6.1328125 C30.10546875 4.8128125 30.10546875 3.4928125 30.10546875 2.1328125 C29.28369141 2.24109375 29.28369141 2.24109375 28.4453125 2.3515625 C20.69425165 3.25900377 12.90185571 3.47484754 5.10546875 3.1328125 C4.77546875 2.8028125 4.44546875 2.4728125 4.10546875 2.1328125 C2.58618837 2.06101286 1.06379393 2.04889243 -0.45703125 2.0703125 C-1.69646484 2.08384766 -1.69646484 2.08384766 -2.9609375 2.09765625 C-3.91806641 2.11505859 -3.91806641 2.11505859 -4.89453125 2.1328125 Z " fill="#1A0C03" transform="translate(181.89453125,207.8671875)"/>
<path d="M0 0 C4.21655713 0.07955768 6.46243511 0.60266943 9.875 3.125 C12.36725344 6.4968723 12.75645269 8.85969567 13 13 C11.66336546 10.9950482 10.35080057 8.97384606 9.0625 6.9375 C7.15243138 3.84002251 7.15243138 3.84002251 4 2 C1.84725052 2.30840599 1.84725052 2.30840599 0 3 C-0.49827508 7.98275079 -0.79256087 10.97801362 2.375 15.0625 C3.24125 16.031875 4.1075 17.00125 5 18 C5.44335938 19.94897461 5.44335938 19.94897461 5.71875 22.02734375 C6.13796011 24.15461201 6.13796011 24.15461201 7 26 C9.61939839 27.33256177 11.3318948 27.92466835 14.125 28.5 C15.58234525 28.8809328 17.03675429 29.27324621 18.48828125 29.67578125 C19.2354541 29.88283691 19.98262695 30.08989258 20.75244141 30.30322266 C32.02311681 33.79730343 42.21197138 40.12296737 50 49 C50 49.66 50 50.32 50 51 C50.66 51 51.32 51 52 51 C52.66 52.65 53.32 54.3 54 56 C48.125 52.375 48.125 52.375 47 49 C36.67233584 39.93307076 25.14916742 33.88498128 12 30 C11.236875 29.773125 10.47375 29.54625 9.6875 29.3125 C8.12924762 28.86010415 6.56542035 28.42693282 5 28 C4.87044922 27.12988281 4.87044922 27.12988281 4.73828125 26.2421875 C3.94872579 21.85254891 3.46124036 19.50516802 0.375 16.125 C-2.70971562 12.06616366 -2.48631712 9.35200761 -2.37109375 4.390625 C-2 2 -2 2 0 0 Z " fill="#0E0601" transform="translate(205,29)"/>
<path d="M0 0 C0.70125 0.721875 1.4025 1.44375 2.125 2.1875 C9.25037033 9.31485101 9.25037033 9.31485101 18.5625 12.4375 C22 13 22 13 23.9375 14.1875 C25.55276777 16.94295679 25.45547602 18.87673586 25 22 C19.79601944 27.20398056 12.68259213 26.4138955 5.83520508 26.453125 C-3.05140756 26.28709469 -9.63339501 24.03948999 -16.2421875 17.92578125 C-18.91993959 15.01681763 -20.74248191 12.77255427 -22 9 C-21.34 9 -20.68 9 -20 9 C-18.90945446 10.37939274 -17.87711735 11.80508661 -16.875 13.25 C-12.79896422 18.63951925 -8.82300326 21.18774718 -2.2421875 22.5859375 C1.47080197 23.06012652 5.06983179 23.13234577 8.8125 23.125 C9.49248047 23.12886719 10.17246094 23.13273437 10.87304688 23.13671875 C14.22043606 23.42049832 14.22043606 23.42049832 17 22 C18.99958364 21.95919217 21.00045254 21.95745644 23 22 C22.505 19.03 22.505 19.03 22 16 C21.43152344 15.90203125 20.86304688 15.8040625 20.27734375 15.703125 C11.82071134 14.0654466 6.66644526 11.24865254 1.06640625 4.68359375 C0 3 0 3 0 0 Z " fill="#2A1506" transform="translate(240,33)"/>
<path d="M0 0 C0 0.66 0 1.32 0 2 C0.74121094 2.27328125 1.48242188 2.5465625 2.24609375 2.828125 C4.82201514 3.92426176 6.79730961 5.12639533 9.0625 6.75 C18.50152591 13.15225804 28.08452751 17.02769224 39.171875 19.48046875 C41.9409118 20.14984335 43.65005089 20.57714483 45.5 22.8125 C46.11367678 25.49733593 45.73120988 27.36764441 45 30 C44.01 30 43.02 30 42 30 C42 29.34 42 28.68 42 28 C42.66 28 43.32 28 44 28 C43.01 25.03 43.01 25.03 42 22 C41.03320312 21.91363281 40.06640625 21.82726562 39.0703125 21.73828125 C30.73533574 20.83876396 24.26044082 19.4486701 17 15 C16.18789062 14.53851563 15.37578125 14.07703125 14.5390625 13.6015625 C12 12 12 12 9.5625 9.95703125 C3.39427333 4.79490253 -0.86047796 3.05284371 -8.91796875 3.59765625 C-15.65023659 4.47652011 -20.96450176 5.76143997 -27 9 C-27.66 9 -28.32 9 -29 9 C-29 8.34 -29 7.68 -29 7 C-19.05050206 2.71959202 -10.91768006 -0.39540894 0 0 Z " fill="#150A03" transform="translate(143,242)"/>
<path d="M0 0 C0 0.99 0 1.98 0 3 C-0.33 2.67 -0.66 2.34 -1 2 C-3.95817107 1.74994614 -3.95817107 1.74994614 -7 2 C-7.66 2.66 -8.32 3.32 -9 4 C-8.60585952 8.64813945 -7.14066086 12.85917641 -5.625 17.25 C-4.17728565 21.47648307 -2.76822034 25.69695016 -1.5625 30 C1.26233279 39.52782584 4.59978167 49.28208966 11 57 C8 57 8 57 6.60546875 55.84765625 C-0.39759113 47.03113183 -3.19153434 35.28903668 -6.203125 24.6015625 C-6.85578723 22.47081229 -7.59569792 20.36696605 -8.359375 18.2734375 C-8.59841553 17.60973145 -8.83745605 16.94602539 -9.08374023 16.26220703 C-9.77912559 14.3421514 -10.49263418 12.42868831 -11.20703125 10.515625 C-12.10919072 6.51590319 -11.73330025 4.66764159 -10 1 C-6.72059884 -1.69379381 -3.95401242 -0.89863919 0 0 Z " fill="#100702" transform="translate(32,184)"/>
<path d="M0 0 C2.3469568 2.98875079 4.2504042 6.06998877 6.1015625 9.38671875 C6.67390625 10.40701172 7.24625 11.42730469 7.8359375 12.47851562 C8.42632812 13.53748047 9.01671875 14.59644531 9.625 15.6875 C10.80323363 17.79638585 11.98284551 19.90450247 13.1640625 22.01171875 C13.68436035 22.94459717 14.2046582 23.87747559 14.74072266 24.83862305 C15.82385571 26.90885665 15.82385571 26.90885665 17 28 C17.23828125 29.890625 17.23828125 29.890625 17.3125 32.25 C17.34988281 33.01828125 17.38726562 33.7865625 17.42578125 34.578125 C16.81416467 38.057045 15.50000774 39.50789118 13 42 C10.47474033 43.62086435 7.83751101 44.91087785 5.125 46.1875 C4.08279297 46.70086914 4.08279297 46.70086914 3.01953125 47.22460938 C-2.5250978 49.913389 -7.7100748 52.3699956 -14 52 C-13 50 -13 50 -11.14575195 49.2097168 C-10.35128662 48.95875244 -9.55682129 48.70778809 -8.73828125 48.44921875 C-7.86623047 48.16240234 -6.99417969 47.87558594 -6.09570312 47.58007812 C-4.26134525 46.99179634 -2.4254307 46.40834342 -0.58789062 45.83007812 C4.96194203 43.9937065 8.82709226 42.13245952 13 38 C14.67910635 34.6417873 14.72023571 31.60117853 14 28 C12.35400603 24.70801206 10.51032464 21.64118346 8.53125 18.5390625 C7 16 7 16 7 14 C6.34 14 5.68 14 5 14 C3.5 11.75 3.5 11.75 2 9 C1.608125 8.34 1.21625 7.68 0.8125 7 C-0.17691421 4.56451887 -0.14467909 2.60422365 0 0 Z " fill="#100702" transform="translate(285,175)"/>
<path d="M0 0 C2.79202215 2.12725497 3.77279657 3.49029301 4.296875 6.97265625 C4.43666047 10.71191746 4.31791634 13.98670876 2 17 C-1.2322715 19.30876536 -4.10964537 19.46684256 -8 19 C-13.57894737 15.84210526 -13.57894737 15.84210526 -15 13 C-15.37677003 8.00779715 -15.07396361 5.01979857 -12 1 C-8.27929915 -0.86035042 -4.05225244 -0.56208663 0 0 Z M-13 4 C-13.48261667 6.50880616 -13.48261667 6.50880616 -13.25 9.1875 C-13.21390625 10.08855469 -13.1778125 10.98960937 -13.140625 11.91796875 C-13.09421875 12.60503906 -13.0478125 13.29210937 -13 14 C-9.23448942 15.25517019 -5.93771153 15.43478898 -2 15 C0.14780077 14.10242444 0.14780077 14.10242444 1 12 C1.3931463 8.39615894 1.39343329 5.90258224 -0.0625 2.5625 C-2.03804309 0.68982429 -2.03804309 0.68982429 -5.4375 0.5625 C-9.17671192 1.02170146 -10.39480769 1.38913189 -13 4 Z " fill="#2C1607" transform="translate(231,145)"/>
<path d="M0 0 C1.21816406 0.03480469 1.21816406 0.03480469 2.4609375 0.0703125 C3.68683594 0.09738281 3.68683594 0.09738281 4.9375 0.125 C5.87722656 0.15980469 5.87722656 0.15980469 6.8359375 0.1953125 C6.8359375 0.8553125 6.8359375 1.5153125 6.8359375 2.1953125 C7.4959375 2.1953125 8.1559375 2.1953125 8.8359375 2.1953125 C8.5059375 3.1853125 8.1759375 4.1753125 7.8359375 5.1953125 C7.8359375 4.5353125 7.8359375 3.8753125 7.8359375 3.1953125 C6.35686858 3.16842034 4.87766267 3.14896629 3.3984375 3.1328125 C2.57472656 3.12121094 1.75101563 3.10960937 0.90234375 3.09765625 C-1.15570188 2.96263902 -1.15570188 2.96263902 -2.1640625 4.1953125 C-2.57024139 8.46019082 -1.84952389 11.27810721 -0.02734375 15.12109375 C1.42627304 18.61372053 2.25978667 22.27652373 3.1875 25.9375 C3.6241584 28.14501489 3.6241584 28.14501489 4.8359375 29.1953125 C4.87657582 30.86148365 4.8786585 32.52919345 4.8359375 34.1953125 C2.5234375 34.8203125 2.5234375 34.8203125 -0.1640625 35.1953125 C-1.1540625 34.5353125 -2.1440625 33.8753125 -3.1640625 33.1953125 C-3.67578125 29.9375 -3.67578125 29.9375 -3.8515625 26.0703125 C-3.91730469 24.78898437 -3.98304687 23.50765625 -4.05078125 22.1875 C-4.08816406 21.20007813 -4.12554687 20.21265625 -4.1640625 19.1953125 C-1.70104827 21.65832673 -1.39639729 23.46891286 -0.5390625 26.8203125 C-0.27867188 27.82320312 -0.01828125 28.82609375 0.25 29.859375 C0.44335938 30.63023437 0.63671875 31.40109375 0.8359375 32.1953125 C0.8359375 28.71600861 0.59783386 27.03936199 -0.51171875 23.89453125 C-0.78693359 23.08177734 -1.06214844 22.26902344 -1.34570312 21.43164062 C-1.92974681 19.74166944 -2.52082525 18.05411195 -3.11914062 16.36914062 C-4.83054838 11.2671321 -5.60134631 7.56256074 -4.1640625 2.1953125 C-2.1640625 0.1953125 -2.1640625 0.1953125 0 0 Z " fill="#100701" transform="translate(54.1640625,166.8046875)"/>
<path d="M0 0 C3.38423992 0.29007771 4.99923 0.9994225 7.75 3.0625 C10.68224425 6.89070778 10.55357734 9.25918542 11 14 C12.74796875 14.05607422 12.74796875 14.05607422 14.53125 14.11328125 C28.1361491 14.63168354 41.51717893 16.14445381 55 18 C55.495 19.485 55.495 19.485 56 21 C52.45845738 20.58334793 48.93352879 20.15958964 45.41796875 19.55859375 C36.6637398 18.07025764 27.90315135 17.34884807 19.05078125 16.69750977 C18.04015625 16.62072998 17.02953125 16.5439502 15.98828125 16.46484375 C15.07602783 16.399021 14.16377441 16.33319824 13.22387695 16.26538086 C11 16 11 16 9 15 C8.52560872 13.41194625 8.11905201 11.80328539 7.75 10.1875 C6.74533234 6.54362766 6.05711813 4.48351802 2.8125 2.4375 C1.884375 1.963125 0.95625 1.48875 0 1 C0 0.67 0 0.34 0 0 Z " fill="#170B03" transform="translate(196,85)"/>
<path d="M0 0 C0.66 0.33 1.32 0.66 2 1 C2.4140625 3.72265625 2.4140625 3.72265625 2.625 7.0625 C2.69976562 8.16722656 2.77453125 9.27195312 2.8515625 10.41015625 C2.90054688 11.26480469 2.94953125 12.11945313 3 13 C3.66 13 4.32 13 5 13 C5.70194375 15.05762909 6.38601697 17.12136031 7.0625 19.1875 C7.44535156 20.33605469 7.82820313 21.48460937 8.22265625 22.66796875 C9.00405156 26.01736676 9.06113572 27.77119665 8 31 C6.25 33.375 6.25 33.375 4 35 C0.47675428 34.82813436 -1.02591724 33.98272184 -4 32 C-6.78202483 25.86838006 -8.61247121 19.73718326 -8 13 C-5.58403287 15.41596713 -5.31891496 17.02348829 -4.5 20.3125 C-3.57363012 24.00287565 -2.65748425 27.56315765 -1 31 C1.44539786 32.07272562 1.44539786 32.07272562 4 32 C4.66 31.34 5.32 30.68 6 30 C5.55361525 25.29203586 4.22718772 20.74499064 3 16.1875 C2.82210937 15.50751953 2.64421875 14.82753906 2.4609375 14.12695312 C1.76928545 10.78806802 1.76928545 10.78806802 0 8 C-0.14115161 5.32941149 -0.04247107 2.67567762 0 0 Z " fill="#140903" transform="translate(112,251)"/>
<path d="M0 0 C0.59441895 0.21712646 1.18883789 0.43425293 1.80126953 0.65795898 C0.68751953 1.29733398 -0.42623047 1.93670898 -1.57373047 2.59545898 C-5.24950236 4.84248562 -8.12813661 7.45690402 -11.19873047 10.47045898 C-16.36905004 15.25955684 -16.36905004 15.25955684 -20.51123047 15.28295898 C-21.72810547 15.07670898 -22.94498047 14.87045898 -24.19873047 14.65795898 C-25.18873047 14.49295898 -26.17873047 14.32795898 -27.19873047 14.15795898 C-27.85873047 13.99295898 -28.51873047 13.82795898 -29.19873047 13.65795898 C-28.0188581 19.12827634 -26.76390969 22.08521003 -22.19873047 25.65795898 C-19.56001314 26.87695827 -16.97599234 27.76358652 -14.19873047 28.65795898 C-14.19873047 28.98795898 -14.19873047 29.31795898 -14.19873047 29.65795898 C-20.2061255 30.09235616 -23.74052081 27.44370127 -28.19873047 23.65795898 C-30.18874359 21.30095643 -31.02315942 19.59688661 -32.19873047 16.65795898 C-31.78466797 13.94311523 -31.78466797 13.94311523 -31.19873047 11.65795898 C-30.36212891 11.79717773 -29.52552734 11.93639648 -28.66357422 12.07983398 C-20.95758284 12.79667039 -17.02685653 12.14326773 -11.04467773 7.31713867 C-9.73843747 6.17609986 -8.44810426 5.01657172 -7.17504883 3.83862305 C-6.58216064 3.29302734 -5.98927246 2.74743164 -5.37841797 2.18530273 C-4.60087158 1.42334595 -4.60087158 1.42334595 -3.80761719 0.64599609 C-2.19873047 -0.34204102 -2.19873047 -0.34204102 0 0 Z " fill="#110802" transform="translate(174.19873046875,171.342041015625)"/>
<path d="M0 0 C1.23307388 0.0028299 2.46614777 0.00565979 3.73658752 0.00857544 C7.6591275 0.0197339 11.58143575 0.04483099 15.50390625 0.0703125 C18.16991853 0.08147854 20.83592864 0.08947274 23.50195312 0.09765625 C30.02351602 0.11965909 36.54494457 0.15309372 43.06640625 0.1953125 C43.06640625 0.8553125 43.06640625 1.5153125 43.06640625 2.1953125 C45.04640625 2.1953125 47.02640625 2.1953125 49.06640625 2.1953125 C49.06640625 2.5253125 49.06640625 2.8553125 49.06640625 3.1953125 C48.00280884 3.14987305 48.00280884 3.14987305 46.91772461 3.10351562 C24.52155668 2.15937235 2.46603476 2.31367738 -19.93359375 3.1953125 C-19.93359375 2.8653125 -19.93359375 2.5353125 -19.93359375 2.1953125 C-13.32026849 -0.2316729 -6.98494339 -0.06065142 0 0 Z " fill="#1D0D03" transform="translate(179.93359375,124.8046875)"/>
<path d="M0 0 C12.5811216 -1.30449418 23.76377324 4.14233138 34 11 C34.99 11.66 35.98 12.32 37 13 C37 13.66 37 14.32 37 15 C37.58265625 15.24492187 38.1653125 15.48984375 38.765625 15.7421875 C41.36302236 17.20435874 42.83975831 18.84740414 44.75 21.125 C45.36359375 21.84945313 45.9771875 22.57390625 46.609375 23.3203125 C47.29773438 24.15175781 47.29773438 24.15175781 48 25 C47.67 25.66 47.34 26.32 47 27 C46.31292969 26.12472656 45.62585938 25.24945313 44.91796875 24.34765625 C42.04762733 20.9103089 38.84449572 18.17258979 35.3125 15.4375 C34.69745605 14.95933838 34.08241211 14.48117676 33.44873047 13.98852539 C23.8219267 6.6649827 14.25098948 2.38745053 2 3 C-0.35529281 3.41731018 -0.35529281 3.41731018 -2 4 C-2 3.34 -2 2.68 -2 2 C-1.34 2 -0.68 2 0 2 C0 1.34 0 0.68 0 0 Z " fill="#170C03" transform="translate(246,242)"/>
<path d="M0 0 C-12.19969138 3.08386475 -12.19969138 3.08386475 -18.3125 3 C-25.49229279 3.44345779 -30.7370649 8.18413819 -36.30078125 12.3359375 C-43.95219948 18 -43.95219948 18 -49 18 C-49 17.01 -49 16.02 -49 15 C-47.865625 14.608125 -46.73125 14.21625 -45.5625 13.8125 C-38.33965066 11.08159937 -32.15101066 7.52316941 -26.5078125 2.234375 C-22.75575957 -0.83725383 -17.67160303 -0.37723794 -13.0625 -0.625 C-12.25103516 -0.6765625 -11.43957031 -0.728125 -10.60351562 -0.78125 C-9.42499023 -0.84699219 -9.42499023 -0.84699219 -8.22265625 -0.9140625 C-7.50859619 -0.9548291 -6.79453613 -0.9955957 -6.05883789 -1.03759766 C-3.89569621 -0.99809525 -2.07151037 -0.60301314 0 0 Z " fill="#1A0C03" transform="translate(271,228)"/>
<path d="M0 0 C5.28 0.66 10.56 1.32 16 2 C16 2.66 16 3.32 16 4 C16.886875 3.9175 17.77375 3.835 18.6875 3.75 C22.73187485 4.05523584 24.02977495 5.35088036 27 8 C27.99 8.33 28.98 8.66 30 9 C30.66 7.35 31.32 5.7 32 4 C33.134375 3.896875 34.26875 3.79375 35.4375 3.6875 C38.69081243 3.29595089 41.54394432 2.5464708 44.625 1.4375 C48.20933991 0.15782232 51.15752493 -0.29557501 55 0 C52.77310437 2.22689563 52.03833043 2.36733403 49.04296875 2.89453125 C48.25986328 3.04599609 47.47675781 3.19746094 46.66992188 3.35351562 C45.02837445 3.65702754 43.3851196 3.95145973 41.74023438 4.23632812 C36.26189164 5.31763902 33.86822904 6.79842268 30 11 C28.68 11 27.36 11 26 11 C25.67 10.01 25.34 9.02 25 8 C22.2887196 7.18511793 19.70373727 6.54905971 16.9375 6 C11.03605614 4.78575349 5.60329666 3.2387746 0 1 C0 0.67 0 0.34 0 0 Z " fill="#140A03" transform="translate(167,246)"/>
<path d="M0 0 C1.32 0 2.64 0 4 0 C4 0.66 4 1.32 4 2 C5.30904297 2.18949219 5.30904297 2.18949219 6.64453125 2.3828125 C9.81908609 2.96672363 12.64074538 3.8255171 15.6875 4.875 C19.77199032 6.19728316 23.59941561 7.14403215 27.859375 7.68359375 C28.69895752 7.7913916 29.53854004 7.89918945 30.40356445 8.01025391 C32.05794741 8.20758757 33.71568035 8.37904311 35.37573242 8.52099609 C40.06894025 9.08235881 42.43285964 9.95991072 45.56640625 13.60546875 C46.40091778 14.71989613 47.22088701 15.84616256 48 17 C45.50638429 15.79618552 43.31856917 14.54571278 41 13 C38.10028397 12.49582827 35.22816792 12.06857863 32.3125 11.6875 C22.00054746 10.20984553 11.24293381 8.02685874 2 3 C2 2.34 2 1.68 2 1 C1.34 0.67 0.68 0.34 0 0 Z " fill="#140A03" transform="translate(102,219)"/>
<path d="M0 0 C7.41792876 -0.49089234 12.70810676 -0.10083394 19 4 C20.2375 4.804375 20.2375 4.804375 21.5 5.625 C21.995 6.07875 22.49 6.5325 23 7 C23 7.66 23 8.32 23 9 C23.8971875 9.433125 23.8971875 9.433125 24.8125 9.875 C27 11 27 11 30 13 C33.43307165 13.24270825 33.43307165 13.24270825 37.1875 13.125 C38.45980469 13.10695312 39.73210937 13.08890625 41.04296875 13.0703125 C42.01878906 13.04710937 42.99460938 13.02390625 44 13 C45.203125 18.609375 45.203125 18.609375 43.375 22.125 C41.07698717 24.906805 39.03781565 27.05268228 36 29 C35.01 28.67 34.02 28.34 33 28 C33.83144531 27.36384766 33.83144531 27.36384766 34.6796875 26.71484375 C39.55282788 22.76950768 41.98093613 20.24176621 43 14 C42.360625 14.165 41.72125 14.33 41.0625 14.5 C36.00388807 15.32589583 31.08452387 15.92106869 26.3125 13.8125 C25.1678125 12.9153125 25.1678125 12.9153125 24 12 C23.46117187 11.59007812 22.92234375 11.18015625 22.3671875 10.7578125 C20.85733871 9.57100113 19.42252089 8.29019337 18 7 C18 6.34 18 5.68 18 5 C16.2984375 4.5359375 16.2984375 4.5359375 14.5625 4.0625 C11 3 11 3 10 2 C8.31816052 1.76712992 6.6287584 1.58735834 4.9375 1.4375 C4.01839844 1.35371094 3.09929687 1.26992187 2.15234375 1.18359375 C1.08693359 1.09271484 1.08693359 1.09271484 0 1 C0 0.67 0 0.34 0 0 Z " fill="#0E0701" transform="translate(202,170)"/>
<path d="M0 0 C0.66 0.33 1.32 0.66 2 1 C2 1.66 2 2.32 2 3 C-0.97 3 -3.94 3 -7 3 C-7.66 5.31 -8.32 7.62 -9 10 C-8.34 10 -7.68 10 -7 10 C-5.98374776 13.18254524 -4.990016 16.37170518 -4 19.5625 C-3.71382812 20.45775391 -3.42765625 21.35300781 -3.1328125 22.27539062 C-1.56195273 27.38068489 -0.64826745 31.65806183 -1 37 C-2.65 37 -4.3 37 -6 37 C-6.33 34.03 -6.66 31.06 -7 28 C-5 30 -5 30 -3 33 C-3.24758057 32.26885986 -3.49516113 31.53771973 -3.75024414 30.78442383 C-4.8667283 27.46447033 -5.96476338 24.13869694 -7.0625 20.8125 C-7.45244141 19.66201172 -7.84238281 18.51152344 -8.24414062 17.32617188 C-8.60830078 16.21435547 -8.97246094 15.10253906 -9.34765625 13.95703125 C-9.68804932 12.93585205 -10.02844238 11.91467285 -10.37915039 10.86254883 C-11.18885328 7.12925491 -10.89623486 4.44393395 -8.875 1.1875 C-5.95675201 -0.66072373 -3.36416315 -0.24466641 0 0 Z " fill="#110802" transform="translate(44,171)"/>
<path d="M0 0 C0.33 0 0.66 0 1 0 C0.68577293 7.38433609 -2.58094242 12.68868583 -7.859375 17.80078125 C-15.17550807 23.69758451 -22.66316522 25.57442387 -31.98046875 25.37109375 C-36.70086608 24.7909673 -40.76317118 23.09966738 -45 21 C-44.67 20.34 -44.34 19.68 -44 19 C-42.783125 19.495 -41.56625 19.99 -40.3125 20.5 C-32.53135788 23.07734991 -23.38323983 23.43692874 -15.78125 20.0546875 C-11.34124677 17.42573822 -7.85616572 14.28424858 -5 10 C-4.34 10 -3.68 10 -3 10 C-2.01 6.7 -1.02 3.4 0 0 Z " fill="#120902" transform="translate(88,223)"/>
<path d="M0 0 C0.66 0.33 1.32 0.66 2 1 C-1.07818414 3.56515345 -3.95307836 4.87575376 -7.75 6.125 C-9.22726563 6.62386719 -9.22726563 6.62386719 -10.734375 7.1328125 C-18.25387061 9.12961636 -25.76544972 9.20987263 -33.5 9.25 C-34.99080078 9.2809375 -34.99080078 9.2809375 -36.51171875 9.3125 C-43.08839384 9.34725126 -49.63635817 9.14360838 -54.71679688 4.39550781 C-55.14025391 3.93499023 -55.56371094 3.47447266 -56 3 C-54.7625 3.28875 -53.525 3.5775 -52.25 3.875 C-43.14472956 5.87615834 -34.34854342 7.46664942 -25 7 C-23.94619141 6.97292969 -23.94619141 6.97292969 -22.87109375 6.9453125 C-15.05088261 6.45564919 -6.97756648 3.48878324 0 0 Z " fill="#0E0702" transform="translate(225,231)"/>
<path d="M0 0 C3.46014553 0.05392435 5.29897186 0.10468262 8.375 1.75 C10.31377051 5.53521862 10.31920806 9.14028865 9.6875 13.3125 C8.76613448 15.88115539 8.1081534 17.02402643 5.84765625 18.57421875 C3.36801088 19.42169248 1.71938727 19.42789801 -0.875 19.125 C-1.63941406 19.04894531 -2.40382812 18.97289062 -3.19140625 18.89453125 C-5.76348353 18.18874946 -6.72895005 17.44811324 -8.3125 15.3125 C-9.58521617 11.01104154 -9.81337857 7.40532596 -7.9375 3.3125 C-5.26220341 0.01982728 -4.30696594 0.10838722 0 0 Z M-5.9921875 2.5625 C-8.07981212 5.32952908 -7.84576158 7.71657866 -7.73046875 11.08203125 C-7.04544117 14.7376457 -5.29936939 16.25487886 -2.3125 18.3125 C1.04152453 19.06715552 2.41400883 18.44620679 5.5 16.9375 C8.39729238 13.46074914 8.40926444 11.02575824 8.16796875 6.59765625 C7.85700603 4.108777 7.85700603 4.108777 5.625 2.1875 C1.66562576 1.00811193 -2.45765759 -0.06784784 -5.9921875 2.5625 Z " fill="#100803" transform="translate(163.3125,144.6875)"/>
<path d="M0 0 C5.7274406 4.66680345 9.30858874 12.92682563 11 20 C11.14244104 22.69164441 11.09307835 25.30072781 11 28 C7.71938899 27.24770859 4.60274076 26.20370925 1.4375 25.0625 C0.01244141 24.55396484 0.01244141 24.55396484 -1.44140625 24.03515625 C-4 23 -4 23 -7 21 C-0.34454208 20.45669731 3.45834744 21.22695996 9 25 C8.0398644 18.60751826 6.75746374 14.35153926 3 9 C1.84234658 6.04480879 0.89308635 3.04461254 0 0 Z " fill="#0D0602" transform="translate(259,85)"/>
<path d="M0 0 C2.97 0.495 2.97 0.495 6 1 C9.24568883 16.68749599 9.33524802 32.0232829 9 48 C8.67 48 8.34 48 8 48 C7.97494385 47.30849854 7.9498877 46.61699707 7.92407227 45.90454102 C7.80847839 42.79032134 7.68558758 39.67643211 7.5625 36.5625 C7.52318359 35.47388672 7.48386719 34.38527344 7.44335938 33.26367188 C7.38051758 31.71196289 7.38051758 31.71196289 7.31640625 30.12890625 C7.27974854 29.17056885 7.24309082 28.21223145 7.20532227 27.22485352 C7.24165576 25.02861075 7.24165576 25.02861075 6 24 C5.5948156 21.43580381 5.24553454 18.88858141 4.9375 16.3125 C4.84662109 15.60416016 4.75574219 14.89582031 4.66210938 14.16601562 C4.16081913 10.08408075 3.9026408 6.12153944 4 2 C2.68 1.34 1.36 0.68 0 0 Z " fill="#271204" transform="translate(252,132)"/>
<path d="M0 0 C0.8971875 0.309375 0.8971875 0.309375 1.8125 0.625 C-0.47515111 2.29743423 -2.76723892 3.96306927 -5.0625 5.625 C-5.71347656 6.10195313 -6.36445313 6.57890625 -7.03515625 7.0703125 C-11.9609375 10.625 -11.9609375 10.625 -14.1875 10.625 C-14.1875 11.285 -14.1875 11.945 -14.1875 12.625 C-14.8475 12.625 -15.5075 12.625 -16.1875 12.625 C-16.45691406 13.21152344 -16.72632813 13.79804688 -17.00390625 14.40234375 C-18.18595187 16.62209279 -19.46850384 18.30339368 -21.125 20.1875 C-21.62902344 20.76628906 -22.13304687 21.34507812 -22.65234375 21.94140625 C-24.1206568 23.55169359 -25.63291345 25.09825679 -27.1875 26.625 C-26.75643906 21.81295237 -24.46742376 19.17666437 -21.25 15.8125 C-20.51716797 15.02963623 -20.51716797 15.02963623 -19.76953125 14.23095703 C-5.30486912 -0.90940613 -5.30486912 -0.90940613 0 0 Z " fill="#110802" transform="translate(159.1875,281.375)"/>
<path d="M0 0 C0.66 0.33 1.32 0.66 2 1 C0.625 2.5 0.625 2.5 -1 4 C-1.66 4 -2.32 4 -3 4 C-3 4.66 -3 5.32 -3 6 C-3.99 6.4125 -4.98 6.825 -6 7.25 C-8.7037448 8.40330764 -11.32438818 9.6546355 -13.9375 11 C-19.98520717 14.02385359 -24.98330903 16.04252623 -31.8125 16.375 C-34.57090086 16.48795422 -34.57090086 16.48795422 -37 17 C-39.28795759 19.35547425 -39.28795759 19.35547425 -40 22 C-41 19 -41 19 -40.0078125 16.890625 C-37.14705236 14.1968353 -34.74732761 14.2273048 -30.875 13.75 C-24.35390667 12.76743138 -18.75800093 10.90978778 -12.8125 8.0625 C-12.10657715 7.72637695 -11.4006543 7.39025391 -10.67333984 7.04394531 C-6.72256429 5.07949229 -3.3533915 2.9106136 0 0 Z " fill="#0F0702" transform="translate(242,246)"/>
<path d="M0 0 C0.99 0 1.98 0 3 0 C4.38671875 1.53125 4.38671875 1.53125 5.6875 3.5 C6.12449219 4.1496875 6.56148437 4.799375 7.01171875 5.46875 C7.50091797 6.22671875 7.50091797 6.22671875 8 7 C5.08482708 5.92598892 3.22189824 5.22189824 1 3 C0.61070312 3.39832031 0.22140625 3.79664063 -0.1796875 4.20703125 C-5.01431499 8.78544576 -9.58068002 10.50538446 -16 12 C-16.66644531 12.185625 -17.33289063 12.37125 -18.01953125 12.5625 C-20.22310299 13.04928508 -22.24427468 13.16818728 -24.5 13.1875 C-25.2528125 13.20167969 -26.005625 13.21585938 -26.78125 13.23046875 C-29.24864173 12.97417278 -30.86356256 12.22845153 -33 11 C-31.91460937 10.95101562 -30.82921875 10.90203125 -29.7109375 10.8515625 C-28.26560216 10.77648014 -26.82029081 10.70093472 -25.375 10.625 C-24.66214844 10.5940625 -23.94929687 10.563125 -23.21484375 10.53125 C-15.84795024 10.12573293 -9.28590114 7.88329004 -3 4 C-1.23676495 1.87396815 -1.23676495 1.87396815 0 0 Z " fill="#100702" transform="translate(193,190)"/>
<path d="M0 0 C0.70125 0.721875 1.4025 1.44375 2.125 2.1875 C9.25037033 9.31485101 9.25037033 9.31485101 18.5625 12.4375 C22 13 22 13 23.9375 14.1875 C25.55276777 16.94295679 25.45547602 18.87673586 25 22 C23.1875 23.9375 23.1875 23.9375 21 25 C20.01 24.67 19.02 24.34 18 24 C19.65 23.34 21.3 22.68 23 22 C22.67 20.02 22.34 18.04 22 16 C21.14728516 15.85304688 21.14728516 15.85304688 20.27734375 15.703125 C11.82071134 14.0654466 6.66644526 11.24865254 1.06640625 4.68359375 C0 3 0 3 0 0 Z " fill="#0C0601" transform="translate(240,33)"/>
<path d="M0 0 C0.33 0 0.66 0 1 0 C1.04898438 1.01578125 1.09796875 2.0315625 1.1484375 3.078125 C1.80246488 18.09012916 1.80246488 18.09012916 5.6875 32.5 C7.01277629 36.03407012 7.09147944 36.6596334 6 40 C-2.55182065 30.41812812 -0.33010805 11.93279472 0 0 Z " fill="#1A0D04" transform="translate(129,163)"/>
<path d="M0 0 C1.12764117 3.33720834 0.87990246 5.31283494 -0.25 8.625 C-0.50265625 9.40101563 -0.7553125 10.17703125 -1.015625 10.9765625 C-2 13 -2 13 -5 15 C-7.17651367 15.59423828 -7.17651367 15.59423828 -9.66796875 16.0703125 C-10.56064453 16.24433594 -11.45332031 16.41835938 -12.37304688 16.59765625 C-13.30181641 16.77167969 -14.23058594 16.94570313 -15.1875 17.125 C-16.12787109 17.30675781 -17.06824219 17.48851562 -18.03710938 17.67578125 C-20.35697829 18.12326865 -22.67787059 18.56442242 -25 19 C-24 17 -24 17 -22.28173828 16.25390625 C-21.55196777 16.02574219 -20.82219727 15.79757812 -20.0703125 15.5625 C-19.27496094 15.30726563 -18.47960937 15.05203125 -17.66015625 14.7890625 C-16.82355469 14.52867187 -15.98695313 14.26828125 -15.125 14 C-13.48044764 13.48335991 -11.83715814 12.96267841 -10.1953125 12.4375 C-9.09727295 12.09525391 -9.09727295 12.09525391 -7.97705078 11.74609375 C-5.73081741 10.98319023 -5.73081741 10.98319023 -3 9 C-1.99194445 6.82102508 -1.99194445 6.82102508 -1.3125 4.375 C-1.06113281 3.55773437 -0.80976563 2.74046875 -0.55078125 1.8984375 C-0.36902344 1.27195312 -0.18726563 0.64546875 0 0 Z " fill="#180C03" transform="translate(200,268)"/>
<path d="M0 0 C0.33 0 0.66 0 1 0 C0.67 2.97 0.34 5.94 0 9 C-8.74392018 10.79362465 -17.08530089 11.23737365 -26 11 C-25.67 10.34 -25.34 9.68 -25 9 C-19.92469156 7.72717028 -14.81917675 7.88365287 -9.625 7.9375 C-8.79355469 7.94201172 -7.96210938 7.94652344 -7.10546875 7.95117188 C-5.07028103 7.96286836 -3.03513077 7.98080065 -1 8 C-0.67 5.36 -0.34 2.72 0 0 Z " fill="#1F0F04" transform="translate(185,91)"/>
<path d="M0 0 C0 0.99 0 1.98 0 3 C-1.79244141 3.14695313 -1.79244141 3.14695313 -3.62109375 3.296875 C-12.16936641 4.07448048 -19.32310037 4.8873752 -27 9 C-27.66 9 -28.32 9 -29 9 C-29 8.34 -29 7.68 -29 7 C-19.05050206 2.71959202 -10.91768006 -0.39540894 0 0 Z " fill="#200F05" transform="translate(143,242)"/>
<path d="M0 0 C3.125 0.3125 3.125 0.3125 4.80200195 1.84277344 C6.62665516 5.24897233 6.49857005 8.37671446 6.41796875 12.140625 C6.41372391 12.88963074 6.40947906 13.63863647 6.40510559 14.41033936 C6.38835746 16.79476375 6.35071397 19.17833253 6.3125 21.5625 C6.29744809 23.18227943 6.28376057 24.80207215 6.27148438 26.421875 C6.2384668 30.38574466 6.18671246 34.34897743 6.125 38.3125 C5.795 38.3125 5.465 38.3125 5.125 38.3125 C5.11041748 37.32854248 5.09583496 36.34458496 5.08081055 35.33081055 C5.02283002 31.67956226 4.94559815 28.02893089 4.86254883 24.37817383 C4.82929812 22.79819757 4.80126654 21.21810248 4.77856445 19.63793945 C4.74501984 17.36618421 4.69270773 15.09551797 4.63671875 12.82421875 C4.63032883 12.11786789 4.6239389 11.41151703 4.61735535 10.6837616 C4.50325866 6.71855782 4.50325866 6.71855782 2.59301758 3.34301758 C2.10857178 3.00294678 1.62412598 2.66287598 1.125 2.3125 C-1.34300047 3.46423355 -2.92283565 4.36033565 -4.875 6.3125 C-3.816444 0.41483087 -3.816444 0.41483087 0 0 Z " fill="#0C0602" transform="translate(267.875,295.6875)"/>
<path d="M0 0 C2.38450676 2.38450676 2.76024296 4.01126358 3.69140625 7.234375 C3.99626953 8.28367188 4.30113281 9.33296875 4.61523438 10.4140625 C4.92783203 11.51492187 5.24042969 12.61578125 5.5625 13.75 C5.87896484 14.83539063 6.19542969 15.92078125 6.52148438 17.0390625 C7.95524395 22.01917006 9.21763378 26.87025861 10 32 C7.87491756 28.81237635 7.4979837 26.73487777 7 23 C6.34 23 5.68 23 5 23 C2.65687944 15.33854067 0.55363461 8.02770189 0 0 Z " fill="#1B0D03" transform="translate(63,173)"/>
<path d="M0 0 C0.69222656 0.2165625 1.38445312 0.433125 2.09765625 0.65625 C12.77934429 3.69609798 23.06524938 3.73611918 34 2 C33 4 33 4 31.28515625 4.6328125 C21.37825718 6.82660737 11.17470716 7.15036079 1.9375 2.4375 C1.298125 1.963125 0.65875 1.48875 0 1 C0 0.67 0 0.34 0 0 Z " fill="#100802" transform="translate(201,197)"/>
<path d="M0 0 C0.47050781 0.40992188 0.94101563 0.81984375 1.42578125 1.2421875 C2.04839844 1.78101563 2.67101562 2.31984375 3.3125 2.875 C4.23482422 3.67550781 4.23482422 3.67550781 5.17578125 4.4921875 C7.13498212 6.1640447 7.13498212 6.1640447 10 8 C10 8.66 10 9.32 10 10 C10.70511719 10.26554688 11.41023437 10.53109375 12.13671875 10.8046875 C15.15567786 12.06498967 17.95185076 13.53957994 20.8125 15.125 C21.78832031 15.66382813 22.76414063 16.20265625 23.76953125 16.7578125 C24.50558594 17.16773438 25.24164063 17.57765625 26 18 C21.94524193 19.35158602 20.30638607 18.2647082 16.546875 16.5078125 C11.79042785 13.69187906 7.92822124 9.85359182 4 6 C2.86498047 4.93265625 2.86498047 4.93265625 1.70703125 3.84375 C0 2 0 2 0 0 Z " fill="#100802" transform="translate(143,215)"/>
<path d="M0 0 C2.41596713 2.41596713 2.68108504 4.02348829 3.5 7.3125 C4.427178 11.00609498 5.38401058 14.5415378 7 18 C7.66 18.33 8.32 18.66 9 19 C9 19.66 9 20.32 9 21 C9.99 21.33 10.98 21.66 12 22 C8.62537285 21.45276317 6.91765 20.9451 4 19 C1.21797517 12.86838006 -0.61247121 6.73718326 0 0 Z " fill="#1F0F05" transform="translate(104,264)"/>
<path d="M0 0 C2.45731872 2.45731872 2.72888693 4.21495432 3.5625 7.5625 C4.21422403 11.07774999 4.21422403 11.07774999 6 14 C6.33 12.35 6.66 10.7 7 9 C7.66 9.33 8.32 9.66 9 10 C9 11.65 9 13.3 9 15 C6.6875 15.625 6.6875 15.625 4 16 C3.01 15.34 2.02 14.68 1 14 C0.48828125 10.7421875 0.48828125 10.7421875 0.3125 6.875 C0.24675781 5.59367188 0.18101563 4.31234375 0.11328125 2.9921875 C0.07589844 2.00476563 0.03851563 1.01734375 0 0 Z " fill="#200F03" transform="translate(50,186)"/>
<path d="M0 0 C0.91007813 0.00902344 1.82015625 0.01804688 2.7578125 0.02734375 C3.45648438 0.03894531 4.15515625 0.05054688 4.875 0.0625 C5.535 1.3825 6.195 2.7025 6.875 4.0625 C6.359375 3.7325 5.84375 3.4025 5.3125 3.0625 C2.03052906 1.71605038 -0.60932783 1.80681475 -4.125 2.0625 C-5.115 2.7225 -6.105 3.3825 -7.125 4.0625 C-7.56547137 6.39346118 -7.56547137 6.39346118 -7.4375 9 C-7.43363281 9.87527344 -7.42976562 10.75054687 -7.42578125 11.65234375 C-7.27513081 14.32197847 -7.27513081 14.32197847 -5.125 17.0625 C-9 15.3125 -9 15.3125 -10.125 13.0625 C-10.50177003 8.07029715 -10.19896361 5.08229857 -7.125 1.0625 C-4.60024538 -0.19987731 -2.81299534 -0.03606404 0 0 Z " fill="#0C0602" transform="translate(226.125,144.9375)"/>
<path d="M0 0 C1.134375 0.020625 2.26875 0.04125 3.4375 0.0625 C-0.56507987 2.73088658 -4.73452398 3.65846543 -9.3359375 4.96484375 C-12.58607671 5.93529412 -12.58607671 5.93529412 -15.2890625 7.75390625 C-16.03929687 8.18574219 -16.78953125 8.61757813 -17.5625 9.0625 C-18.5525 8.7325 -19.5425 8.4025 -20.5625 8.0625 C-17.92377443 4.74036349 -14.9336937 4.06281397 -10.9375 2.9375 C-0.66293478 0.01163043 -0.66293478 0.01163043 0 0 Z " fill="#130903" transform="translate(181.5625,271.9375)"/>
<path d="M0 0 C1.32 0.33 2.64 0.66 4 1 C3.67 1.66 3.34 2.32 3 3 C2.01 3 1.02 3 0 3 C-1.62974208 4.6030079 -1.62974208 4.6030079 -3.1875 6.6875 C-6.53704257 10.69269771 -10.13371591 13.95280462 -15 16 C-15.66 15.67 -16.32 15.34 -17 15 C-16.19175781 14.41992188 -15.38351563 13.83984375 -14.55078125 13.2421875 C-9.09401682 9.2721616 -3.97646784 5.53865164 0 0 Z " fill="#090401" transform="translate(93,239)"/>
<path d="M0 0 C0 0.33 0 0.66 0 1 C-1.15757812 1.19335938 -2.31515625 1.38671875 -3.5078125 1.5859375 C-5.04691717 1.84871147 -6.58597734 2.11174612 -8.125 2.375 C-8.88554687 2.50132812 -9.64609375 2.62765625 -10.4296875 2.7578125 C-14.75699687 3.50390032 -18.93351377 4.28194047 -23 6 C-23.66 6.99 -24.32 7.98 -25 9 C-25 7.35 -25 5.7 -25 4 C-16.9381107 -0.03094465 -8.88124148 -0.16446743 0 0 Z " fill="#120802" transform="translate(158,128)"/>
<path d="M0 0 C0.66 0 1.32 0 2 0 C3.09054554 1.37939274 4.12288265 2.80508661 5.125 4.25 C8.62764657 8.93736526 11.68602737 10.70949456 17 13 C17.33 13.66 17.66 14.32 18 15 C12.58851513 14.6617822 8.87242092 11.52109241 5 8 C0 2.09855769 0 2.09855769 0 0 Z " fill="#110902" transform="translate(218,42)"/>
<path d="M0 0 C2.81191561 2.81191561 3.53516103 6.16519078 4.6875 9.875 C4.92533203 10.59558594 5.16316406 11.31617188 5.40820312 12.05859375 C6.58394389 15.80303502 7.1851875 18.25823079 6 22 C2.03879972 14.86983949 0 8.20170578 0 0 Z " fill="#1C0D04" transform="translate(97,242)"/>
<path d="M0 0 C1.32 0 2.64 0 4 0 C4 0.66 4 1.32 4 2 C5.2375 2.1546875 5.2375 2.1546875 6.5 2.3125 C10.59289012 3.11646056 14.12540225 4.46352158 18 6 C18 6.33 18 6.66 18 7 C12.01488629 6.65697965 7.24882694 6.17692157 2 3 C2 2.34 2 1.68 2 1 C1.34 0.67 0.68 0.34 0 0 Z " fill="#190C03" transform="translate(102,219)"/>
<path d="M0 0 C2.05078125 0.03255208 4.1015625 0.06510417 6.15234375 0.09765625 C6.15234375 0.42765625 6.15234375 0.75765625 6.15234375 1.09765625 C3.84234375 1.09765625 1.53234375 1.09765625 -0.84765625 1.09765625 C1.07203353 7.38997275 2.78729347 10.28250939 8.15234375 14.09765625 C7.16234375 14.42765625 6.17234375 14.75765625 5.15234375 15.09765625 C3.80405565 13.71626287 2.47416997 12.31689145 1.15234375 10.91015625 C0.40984375 10.13285156 -0.33265625 9.35554687 -1.09765625 8.5546875 C-3.08908475 5.75868632 -3.31128826 4.45319295 -2.84765625 1.09765625 C-1.84765625 0.09765625 -1.84765625 0.09765625 0 0 Z " fill="#0A0501" transform="translate(177.84765625,207.90234375)"/>
<path d="M0 0 C6.65545792 -0.54330269 10.45834744 0.22695996 16 4 C16.33 2.68 16.66 1.36 17 0 C17 1.65 17 3.3 17 5 C10.49939519 5.48754536 5.34532193 3.56354796 0 0 Z " fill="#231106" transform="translate(252,106)"/>
<path d="M0 0 C4.94646432 0.43645273 7.30882294 2.85857272 11 6 C13.21735439 6.85279338 13.21735439 6.85279338 15 7 C15 7.66 15 8.32 15 9 C15.66 9.33 16.32 9.66 17 10 C13.2397015 9.41892368 10.46964968 8.34800504 7.1875 6.4375 C6.39730469 5.98246094 5.60710937 5.52742187 4.79296875 5.05859375 C4.20128906 4.70925781 3.60960937 4.35992187 3 4 C3 3.34 3 2.68 3 2 C2.01 1.67 1.02 1.34 0 1 C0 0.67 0 0.34 0 0 Z " fill="#160A02" transform="translate(150,236)"/>
<path d="M0 0 C3 0.25 3 0.25 5 2.25 C3.865625 2.559375 2.73125 2.86875 1.5625 3.1875 C-1.78775099 3.87924531 -1.78775099 3.87924531 -3 5.25 C-3.23481693 7.43292774 -3.41363323 9.62203174 -3.5625 11.8125 C-3.64628906 13.01003906 -3.73007813 14.20757812 -3.81640625 15.44140625 C-3.87699219 16.36824219 -3.93757813 17.29507813 -4 18.25 C-4.33 18.25 -4.66 18.25 -5 18.25 C-5.05382106 15.62472811 -5.09358313 13.00055287 -5.125 10.375 C-5.14175781 9.62863281 -5.15851563 8.88226563 -5.17578125 8.11328125 C-5.1933959 6.15805539 -5.10320189 4.20257979 -5 2.25 C-3 0.25 -3 0.25 0 0 Z " fill="#4B2209" transform="translate(82,185.75)"/>
<path d="M0 0 C-0.556875 0.226875 -1.11375 0.45375 -1.6875 0.6875 C-4.73810743 2.41892584 -6.74118761 4.31384473 -9 7 C-9.87989974 10.18150892 -9.87989974 10.18150892 -10 13 C-10.33 13 -10.66 13 -11 13 C-11.10824843 11.3973218 -11.18570645 9.79254252 -11.25 8.1875 C-11.29640625 7.29417969 -11.3428125 6.40085938 -11.390625 5.48046875 C-11 3 -11 3 -9.21875 1.1875 C-6.1053545 -0.47882435 -3.46880407 -0.20012331 0 0 Z " fill="#492309" transform="translate(229,146)"/>
<path d="M0 0 C0.99 0.33 1.98 0.66 3 1 C3 1.66 3 2.32 3 3 C3.87398438 3.36738281 3.87398438 3.36738281 4.765625 3.7421875 C7.36302236 5.20435874 8.83975831 6.84740414 10.75 9.125 C11.36359375 9.84945313 11.9771875 10.57390625 12.609375 11.3203125 C13.29773438 12.15175781 13.29773438 12.15175781 14 13 C13.67 13.66 13.34 14.32 13 15 C12.34 14.154375 11.68 13.30875 11 12.4375 C8.19821021 9.03821036 4.97189633 6.30410715 1.57421875 3.515625 C1.05472656 3.01546875 0.53523438 2.5153125 0 2 C0 1.34 0 0.68 0 0 Z " fill="#0D0501" transform="translate(280,254)"/>
<path d="M0 0 C0.66 0.33 1.32 0.66 2 1 C0.8553125 1.928125 0.8553125 1.928125 -0.3125 2.875 C-3.98040627 6.46996495 -4.83925764 11.13998119 -6 16 C-6.33 16 -6.66 16 -7 16 C-7.42014232 9.90793639 -7.06715472 6.88058567 -3 2 C-2.01 1.34 -1.02 0.68 0 0 Z " fill="#431F06" transform="translate(124,124)"/>
<path d="M0 0 C0.33 0 0.66 0 1 0 C1.3125 2.25 1.3125 2.25 1 5 C-1.0625 7.375 -1.0625 7.375 -4 9 C-7.75 8.875 -7.75 8.875 -11 8 C-11.33 7.34 -11.66 6.68 -12 6 C-11.38511719 5.98582031 -10.77023438 5.97164062 -10.13671875 5.95703125 C-7.66506369 5.81117601 -5.40294433 5.60607122 -3 5 C-0.93545998 2.59256899 -0.93545998 2.59256899 0 0 Z " fill="#44230C" transform="translate(170,154)"/>
<path d="M0 0 C13.81776765 -0.55353075 13.81776765 -0.55353075 19 3 C19 3.33 19 3.66 19 4 C12.64416673 3.13329546 6.32448699 2.06965872 0 1 C0 0.67 0 0.34 0 0 Z " fill="#261204" transform="translate(236,117)"/>
<path d="M0 0 C0.66 0 1.32 0 2 0 C2 0.99 2 1.98 2 3 C2.763125 2.649375 3.52625 2.29875 4.3125 1.9375 C7 1 7 1 10 2 C3.5 6 3.5 6 -1 6 C-0.67 4.02 -0.34 2.04 0 0 Z " fill="#1C0E05" transform="translate(120,106)"/>
<path d="M0 0 C-0.66 1.32 -1.32 2.64 -2 4 C-6.29 4 -10.58 4 -15 4 C-15 3.67 -15 3.34 -15 3 C-13.0636296 2.49564306 -11.12585854 1.99666126 -9.1875 1.5 C-8.10855469 1.2215625 -7.02960938 0.943125 -5.91796875 0.65625 C-3 0 -3 0 0 0 Z " fill="#1C0D04" transform="translate(76,255)"/>
<path d="M0 0 C5.92863717 1.16651426 11.38798394 2.75519358 17 5 C17 5.33 17 5.66 17 6 C11.8234243 6.38824318 7.57593284 5.37089911 3 3 C1.26171875 1.39453125 1.26171875 1.39453125 0 0 Z " fill="#1F0E03" transform="translate(169,234)"/>
<path d="M0 0 C2.52940738 3.13164723 4.44920018 6.27808042 6 10 C5.6875 12.375 5.6875 12.375 5 14 C3.98648336 12.34151823 2.98879205 10.67334039 2 9 C1.608125 8.34 1.21625 7.68 0.8125 7 C-0.17691421 4.56451887 -0.14467909 2.60422365 0 0 Z " fill="#1A0C04" transform="translate(285,175)"/>
<path d="M0 0 C0.33 1.32 0.66 2.64 1 4 C0.1646875 3.505 0.1646875 3.505 -0.6875 3 C-3.3367035 1.85439849 -5.1407807 1.77427216 -8 2 C-8.99 2.495 -8.99 2.495 -10 3 C-10 2.01 -10 1.02 -10 0 C-6.42355152 -1.2380014 -3.66305234 -0.74926071 0 0 Z " fill="#452009" transform="translate(213,28)"/>
<path d="M0 0 C0.66 0.33 1.32 0.66 2 1 C0.02 3.31 -1.96 5.62 -4 8 C-5.32 7.67 -6.64 7.34 -8 7 C-7.67 6.34 -7.34 5.68 -7 5 C-6.34 5.33 -5.68 5.66 -5 6 C-3.35 4.02 -1.7 2.04 0 0 Z " fill="#411E06" transform="translate(200,172)"/>
<path d="M0 0 C-2.34545328 2.34545328 -3.95985838 2.95508888 -7.26171875 3.09765625 C-8.06222656 3.08605469 -8.86273438 3.07445312 -9.6875 3.0625 C-10.89986328 3.04896484 -10.89986328 3.04896484 -12.13671875 3.03515625 C-13.05904297 3.01775391 -13.05904297 3.01775391 -14 3 C-14 2.67 -14 2.34 -14 2 C-9.15758367 0.66416101 -5.06562383 -0.25328119 0 0 Z " fill="#1D0D03" transform="translate(222,246)"/>
<path d="M0 0 C1.32 0.33 2.64 0.66 4 1 C4.33 2.98 4.66 4.96 5 7 C4.34 7 3.68 7 3 7 C3 5.35 3 3.7 3 2 C1.68 2.99 0.36 3.98 -1 5 C-1.66 4.67 -2.32 4.34 -3 4 C-2.01 2.68 -1.02 1.36 0 0 Z " fill="#432008" transform="translate(93,241)"/>
<path d="M0 0 C3.29078593 2.79716804 5.06305458 6.19528578 7 10 C6.67 10.66 6.34 11.32 6 12 C2.28930302 8.00386479 0.40208382 5.62917348 0 0 Z " fill="#0D0601" transform="translate(136,203)"/>
<path d="M0 0 C2.64 0 5.28 0 8 0 C8.33 0.99 8.66 1.98 9 3 C2.84765625 2.4140625 2.84765625 2.4140625 1 2 C0.67 1.34 0.34 0.68 0 0 Z " fill="#241205" transform="translate(243,103)"/>
<path d="M0 0 C1.32 0 2.64 0 4 0 C4 0.66 4 1.32 4 2 C6.97 2.495 6.97 2.495 10 3 C10 3.33 10 3.66 10 4 C7.69 4 5.38 4 3 4 C2.67 3.01 2.34 2.02 2 1 C1.34 0.67 0.68 0.34 0 0 Z " fill="#2B1507" transform="translate(102,219)"/>
<path d="M0 0 C0.33 0.66 0.66 1.32 1 2 C1.66 2 2.32 2 3 2 C3.33 3.98 3.66 5.96 4 8 C2 6.25 2 6.25 0 4 C0 2.68 0 1.36 0 0 Z " fill="#221006" transform="translate(132,195)"/>
<path d="M0 0 C0.78375 0.04125 1.5675 0.0825 2.375 0.125 C1.199375 0.99125 1.199375 0.99125 0 1.875 C-2.42547244 3.95397637 -3.48194417 5.21540333 -4.625 8.125 C-4.75 5.25 -4.75 5.25 -4.625 2.125 C-2.625 0.125 -2.625 0.125 0 0 Z " fill="#451F06" transform="translate(39.625,172.875)"/>
</svg>
